<svg width="19" height="30" viewBox="0 0 19 30" fill="none" xmlns="http://www.w3.org/2000/svg">
<path fill-rule="evenodd" clip-rule="evenodd" d="M6.64152 0.14032C6.68119 0.269242 6.65143 0.308907 6.52251 0.279155C6.09607 0.209736 5.56055 0.814682 5.92748 0.953521C5.98699 0.983272 5.9969 1.01302 5.9374 1.01302C5.78864 1.02294 5.92748 1.82622 6.23491 2.65925C6.37375 3.0361 6.49276 3.48237 6.49276 3.65096C6.49276 3.80963 6.56218 4.28565 6.64152 4.69225C6.89936 5.99138 6.9291 6.29881 6.9291 7.5682C6.91919 9.06567 6.89936 9.24419 6.66135 9.4822C6.56218 9.58137 6.50267 9.73012 6.53242 9.79954C6.56217 9.87887 6.42333 10.107 6.23491 10.3152C6.03657 10.5235 5.81839 10.8111 5.73906 10.9598C5.65972 11.1185 5.56056 11.2375 5.51097 11.2375C5.46139 11.2375 5.36221 11.3863 5.29279 11.5549C5.13412 11.9515 4.88619 12.1697 4.78702 12.0011C4.75727 11.9416 4.79694 11.8325 4.88619 11.7631C5.04487 11.6441 5.04487 11.6243 4.86636 11.4854C4.75728 11.4061 4.71761 11.3367 4.76719 11.3367C4.87628 11.3367 4.87628 10.4342 4.76719 10.2557C4.72752 10.1962 4.76719 10.1466 4.85645 10.1466C4.96554 10.1466 5.0052 10.0971 4.97545 10.0078C4.9457 9.92846 5.01511 9.68053 5.13412 9.47228C5.32254 9.12518 5.33246 9.04584 5.21346 8.82767C5.02504 8.47065 4.68785 8.42107 4.24158 8.65907C4.03332 8.76816 3.81515 8.85742 3.74573 8.85742C3.67631 8.85742 3.61681 8.92684 3.61681 9.00617C3.61681 9.08551 3.57714 9.15493 3.53747 9.15493C3.48789 9.15493 3.38871 9.27393 3.30938 9.42269C3.23996 9.58136 3.07137 9.82929 2.95236 9.97805C2.82344 10.1367 2.75403 10.3152 2.79369 10.3747C2.82344 10.4442 2.82345 10.464 2.77386 10.4243C2.71436 10.3648 2.22843 10.9598 2.22843 11.0987C2.22843 11.1582 2.14909 11.2673 1.6929 11.783C1.31605 12.2193 0.54252 13.8953 0.512769 14.3316C0.502852 14.4903 0.463181 14.6093 0.423513 14.6093C0.373928 14.6093 0.344184 14.7581 0.344184 14.9465C0.344184 15.1349 0.304515 15.3233 0.245013 15.3531C0.195428 15.3828 0.155757 15.5118 0.155757 15.6308C0.155757 15.7498 0.116086 16.1068 0.0665009 16.4142C-0.072338 17.3266 0.0169108 19.8257 0.235086 20.8571C0.522681 22.2058 1.43506 24.3776 1.83174 24.6553C1.93091 24.7247 2.0995 24.9726 2.20858 25.2206C2.31767 25.4685 2.55569 25.7958 2.72428 25.9644C3.03171 26.2519 3.04162 26.252 3.18046 26.0734C3.27302 25.9478 3.3193 25.9544 3.3193 26.0933C3.3193 26.2123 3.26971 26.3114 3.21021 26.3114C3.16062 26.3114 3.13087 26.3511 3.16062 26.4007C3.19037 26.4503 3.3193 26.4701 3.44822 26.4503C3.56722 26.4305 3.60689 26.4305 3.54739 26.4701C3.36888 26.5495 3.38872 26.7081 3.56723 26.7081C3.64657 26.7081 3.71599 26.7577 3.71599 26.8271C3.71599 26.8866 3.74573 26.9065 3.77549 26.8767C3.81515 26.847 3.92424 26.9263 4.03333 27.0552C4.30109 27.3924 4.43993 27.3726 4.36059 27.0056C4.30109 26.7181 4.43992 26.5792 4.53909 26.8271C4.57876 26.9263 4.59859 26.9263 4.59859 26.8271C4.60851 26.728 4.63827 26.728 4.75728 26.847C4.9457 27.0354 4.94569 27.1643 4.74735 27.2437C4.66801 27.2734 4.62836 27.2635 4.65811 27.2139C4.68786 27.1643 4.6581 27.085 4.59859 27.0552C4.52918 27.0056 4.49943 27.0453 4.52918 27.1544C4.5391 27.2437 4.70768 27.3825 4.88619 27.4519C5.16387 27.5709 5.20355 27.5709 5.20355 27.442C5.20355 27.3627 5.25313 27.323 5.30272 27.3527C5.36222 27.3825 5.40189 27.3627 5.40189 27.2932C5.40189 27.1445 5.55064 27.2734 5.55064 27.4321C5.56056 27.5015 5.61014 27.5412 5.66964 27.5313C5.73906 27.5213 5.7589 27.5908 5.71923 27.7296C5.68617 27.8684 5.72583 27.8817 5.83823 27.7693C6.04649 27.561 6.13575 27.561 6.29442 27.7494C6.36384 27.8288 6.45309 27.8684 6.50268 27.8387C6.55226 27.8089 6.58201 27.8387 6.57209 27.8982C6.55226 27.9676 6.65144 28.037 6.79028 28.0569C6.92911 28.0866 7.08779 28.156 7.13737 28.2254C7.27621 28.394 7.75223 28.5924 8.02991 28.5924C8.15883 28.5924 8.29767 28.642 8.32742 28.7015C8.36709 28.761 8.45634 28.7808 8.52576 28.7511C8.6051 28.7213 8.71418 28.7709 8.7836 28.8601C8.88277 28.9692 9.02162 28.999 9.36871 28.9494C9.62656 28.9196 9.75547 28.9296 9.68605 28.9791C9.5968 29.0287 9.6563 29.0585 9.85464 29.0486C10.2017 29.0386 10.2216 29.0089 10.0034 28.8502C9.87447 28.7511 9.8844 28.7312 10.0728 28.7213C10.1918 28.7114 10.3703 28.7411 10.4794 28.8006C10.6183 28.8701 10.6579 28.8601 10.6579 28.7511C10.6579 28.6618 10.7174 28.6221 10.7968 28.6519C10.9654 28.7114 11.5703 28.513 12.0166 28.2354C12.3438 28.0469 12.4331 27.8982 12.2347 27.8982C12.1851 27.8982 12.1653 27.8486 12.1951 27.7891C12.2447 27.7296 12.3042 27.7494 12.3835 27.8585C12.4827 27.9874 12.5323 27.9974 12.5918 27.8982C12.6314 27.8288 12.6116 27.7395 12.5322 27.6899C12.4628 27.6503 12.4331 27.5808 12.4827 27.5313C12.5223 27.4916 12.6017 27.5313 12.6513 27.6304C12.7504 27.799 13.038 27.8684 13.038 27.7098C13.038 27.6701 13.1868 27.5808 13.3653 27.5213C13.5339 27.4717 13.6033 27.4222 13.514 27.4122C13.1868 27.3924 13.3355 27.204 13.6628 27.204C14.0297 27.204 14.2281 27.0552 14.2281 26.7776C14.2281 26.6784 14.2677 26.6189 14.3173 26.6585C14.3768 26.6883 14.5355 26.5594 14.6942 26.361C14.8429 26.1726 15.0314 26.0139 15.1008 26.0139C15.1603 26.0139 15.2198 25.9842 15.2198 25.9346C15.2198 25.8949 15.3487 25.7759 15.5173 25.6668C15.676 25.5578 15.8644 25.3693 15.9239 25.2503C15.9933 25.1214 16.0925 25.0222 16.152 25.0222C16.271 25.0222 16.39 24.8437 16.8363 24.0305C17.0048 23.733 17.2429 23.3363 17.3817 23.1578C17.5106 22.9793 17.6296 22.7314 17.6296 22.5925C17.6296 22.4537 17.6594 22.3446 17.709 22.3446C17.7585 22.3446 17.7982 22.295 17.7982 22.2355C17.7982 22.186 17.7486 22.1661 17.6792 22.2058C17.6098 22.2554 17.5999 22.2355 17.6395 22.1562C17.6891 22.0868 17.7883 22.057 17.8676 22.0868C17.9866 22.1364 18.0065 22.0769 17.9767 21.7595C17.9569 21.5413 17.9767 21.3926 18.0263 21.4223C18.0759 21.4521 18.1056 21.3926 18.0858 21.2934C18.0759 21.1843 18.1354 20.9562 18.2147 20.7678C18.304 20.5794 18.3635 20.3215 18.3437 20.1926C18.3337 20.0637 18.3536 19.9645 18.3833 19.9645C18.423 19.9645 18.4527 19.8852 18.4627 19.786C18.4627 19.6968 18.5023 19.3199 18.542 18.9431C18.5817 18.5067 18.5717 18.2786 18.5023 18.2786C18.4428 18.2786 18.4329 18.1993 18.4726 18.0704C18.5222 17.9514 18.5222 17.6439 18.4924 17.3861C18.4627 17.1183 18.4627 16.92 18.5122 16.9497C18.5519 16.9795 18.5916 16.9497 18.5916 16.9002C18.5916 16.8407 18.5321 16.7911 18.4726 16.7911C18.3833 16.7911 18.3932 16.7514 18.4924 16.6919C18.6213 16.6126 18.6213 16.5927 18.4726 16.5927C18.3635 16.5927 18.3238 16.5332 18.3635 16.3845C18.4032 16.2456 18.3734 16.1861 18.2841 16.196C18.0164 16.2357 17.8875 16.196 17.947 16.0969C17.9767 16.0374 18.0957 15.9977 18.2048 15.9977C18.3932 15.9977 18.3932 15.9878 18.2544 15.7795C18.066 15.5217 18.0461 15.2043 18.2048 15.2043C18.2742 15.2043 18.2941 15.1052 18.2445 14.9267C18.2048 14.7779 18.1651 14.5895 18.1552 14.5101C18.1453 14.4209 18.1056 14.3019 18.0561 14.2325C18.0164 14.173 18.0065 14.0738 18.0362 14.0242C18.0759 13.9746 18.0561 13.9151 18.0065 13.8953C17.8776 13.8457 17.7685 13.4193 17.8875 13.4193C17.947 13.4193 17.9966 13.33 17.9966 13.2209C17.9966 13.1118 17.947 13.0226 17.8875 13.0226C17.828 13.0226 17.7982 12.9036 17.818 12.7548C17.8379 12.5962 17.8081 12.4771 17.7486 12.4771C17.699 12.4771 17.59 12.4375 17.5106 12.3879C17.4114 12.3185 17.4115 12.2887 17.5007 12.2292C17.5701 12.1895 17.59 12.1003 17.5602 12.0408C17.5205 11.9813 17.4511 11.9515 17.4114 11.9714C17.3718 12.0011 17.3619 11.8722 17.3817 11.7036C17.4114 11.4458 17.3519 11.3268 17.0743 11.0689C16.7272 10.7516 16.6379 10.7317 15.9437 10.8904C15.676 10.9499 15.557 11.0689 15.4677 11.3367C15.4578 11.3664 15.4181 11.8226 15.3785 12.3482C15.3189 13.0226 15.2495 13.3796 15.1305 13.5085C15.0314 13.6176 14.8727 13.8159 14.7735 13.9548C14.6644 14.0936 14.5355 14.2126 14.4859 14.2126C14.4363 14.2126 14.3372 14.292 14.2578 14.3812C14.1785 14.4804 14.1388 14.5101 14.1686 14.4407C14.2479 14.292 14.0694 14.173 13.9801 14.3118C13.881 14.4804 13.6628 14.4209 13.6033 14.2126C13.5735 14.1035 13.5934 14.0143 13.6331 14.0143C13.7917 14.0143 13.7818 13.568 13.6331 13.4391C13.524 13.3399 13.514 13.2903 13.6132 13.2606C13.6727 13.2308 13.7322 13.1515 13.7322 13.092C13.7322 13.0226 13.8016 12.8441 13.881 12.6953C13.9603 12.5466 13.9801 12.4474 13.9306 12.4771C13.8711 12.5168 13.8314 12.4573 13.8215 12.3581C13.8215 12.259 13.8016 12.1003 13.7818 12.0011C13.762 11.9119 13.7818 11.8524 13.8314 11.8821C13.8711 11.9119 13.9306 11.8226 13.9504 11.6937C13.9901 11.5251 13.9603 11.4656 13.8611 11.5053C13.7124 11.5648 13.6826 11.3764 13.8314 11.2871C13.9107 11.2375 13.9107 11.178 13.8413 11.0987C13.7818 11.0293 13.752 10.9499 13.7719 10.9301C13.7917 10.9103 13.8314 10.7714 13.8711 10.6127C13.9206 10.4243 13.9008 10.3549 13.8116 10.3648C13.7223 10.3846 13.6826 10.2656 13.6826 9.98796C13.6826 9.76979 13.6231 9.51195 13.5537 9.43261C13.4843 9.34336 13.4545 9.21444 13.4843 9.1351C13.514 9.05576 13.4545 8.91692 13.3455 8.81775C13.2364 8.71858 13.1769 8.57974 13.1967 8.51032C13.2264 8.4409 13.1769 8.3219 13.0876 8.23264C13.0083 8.14339 12.8496 7.86571 12.7405 7.61778C12.6215 7.33019 12.4628 7.13185 12.3339 7.1021C12.1851 7.06243 12.1653 7.02276 12.2546 6.96326C12.3637 6.90376 12.3537 6.87401 12.2149 6.8145C12.1257 6.78475 12.0463 6.67567 12.0463 6.58641C12.0364 6.35832 11.5901 5.84263 11.4612 5.92197C11.3918 5.96164 11.372 5.93189 11.4116 5.84263C11.4414 5.75338 11.372 5.59471 11.2331 5.46578C10.8959 5.1286 9.96374 4.02781 9.96374 3.94847C9.96374 3.88897 9.91415 3.81955 9.51747 3.37328C9.37863 3.21461 9.29929 3.04602 9.32904 2.98652C9.37863 2.9171 9.32904 2.89726 9.20012 2.92701C9.04144 2.96668 9.01169 2.94685 9.04144 2.79809C9.0712 2.689 9.04145 2.60967 8.97203 2.60967C8.90261 2.60967 8.87285 2.54025 8.91252 2.46091C8.94227 2.37166 8.90261 2.2824 8.82327 2.25265C8.74394 2.21299 8.67452 2.15348 8.67452 2.1039C8.67452 1.93531 8.0299 0.675839 7.9109 0.596503C7.84148 0.556835 7.78198 0.457663 7.78198 0.378326C7.78198 0.179985 7.60347 0.100648 7.05803 0.0312289C6.64151 -0.0282735 6.59193 -0.00843571 6.64152 0.14032ZM8.14891 5.98147C8.15883 6.09055 8.12907 6.17981 8.06957 6.17981C7.9704 6.17981 7.95057 5.95172 8.04974 5.85255C8.13899 5.76329 8.13899 5.75337 8.14891 5.98147ZM10.4596 8.33181C10.4596 8.40123 10.4199 8.46073 10.3802 8.46073C10.2712 8.46073 10.0629 8.00455 10.1323 7.92522C10.2017 7.8558 10.4497 8.16322 10.4596 8.33181ZM7.65306 10.7615C7.6233 10.8408 7.59356 10.8111 7.59356 10.702C7.58364 10.5929 7.61339 10.5334 7.64314 10.5731C7.67289 10.6028 7.68281 10.6921 7.65306 10.7615ZM18.0957 14.7482C18.0957 14.7779 18.0561 14.8275 17.9966 14.8572C17.947 14.887 17.8974 14.8672 17.8974 14.8176C17.8974 14.7581 17.947 14.7085 17.9966 14.7085C18.0561 14.7085 18.0957 14.7283 18.0957 14.7482ZM17.9966 15.4126C17.9966 15.4622 17.9569 15.5018 17.8974 15.5018C17.8478 15.5018 17.7982 15.4324 17.7982 15.3432C17.7982 15.2638 17.8478 15.2242 17.8974 15.2539C17.9569 15.2837 17.9966 15.3531 17.9966 15.4126ZM9.26954 16.0969C9.26954 16.1465 9.24971 16.196 9.22987 16.196C9.20012 16.196 9.15054 16.1465 9.12079 16.0969C9.09103 16.0374 9.11086 15.9977 9.16044 15.9977C9.21995 15.9977 9.26954 16.0374 9.26954 16.0969ZM2.01024 17.3563C2.06975 17.9216 2.16892 18.3381 2.24826 18.3877C2.31767 18.4274 2.31767 18.5166 2.24826 18.6356C2.19867 18.7447 2.17884 18.9629 2.19867 19.1414C2.23834 19.3893 2.20859 19.4786 2.03008 19.5678C1.91108 19.6373 1.83173 19.6373 1.8714 19.5877C1.96066 19.429 1.83174 19.1712 1.64332 19.1612C1.55406 19.1612 1.61356 19.1117 1.77223 19.0522C1.96066 18.9827 2.01025 18.9232 1.93091 18.8736C1.84166 18.8141 1.84165 18.7447 1.92099 18.596C1.98049 18.4869 1.99041 18.3778 1.94083 18.358C1.82182 18.3084 1.70281 17.8819 1.8119 17.8819C1.8714 17.8819 1.88133 17.7431 1.83174 17.5348C1.77224 17.2869 1.79207 17.1877 1.8714 17.1877C1.9309 17.1877 2.00033 17.2671 2.01024 17.3563ZM5.57047 21.0058C5.57047 21.0852 5.5308 21.1248 5.48122 21.0951C5.43163 21.0653 5.42172 20.9959 5.45147 20.9463C5.54073 20.8174 5.57047 20.8372 5.57047 21.0058ZM3.41847 21.3529C3.41847 21.4025 3.36888 21.4521 3.30938 21.4521C3.25979 21.4521 3.23997 21.4025 3.26972 21.3529C3.29947 21.2934 3.34905 21.2537 3.3788 21.2537C3.39864 21.2537 3.41847 21.2934 3.41847 21.3529ZM10.3802 21.6504C10.3604 21.819 10.3009 21.9777 10.2513 22.0074C10.1522 22.0669 10.1323 21.7496 10.2216 21.5116C10.3207 21.2438 10.4298 21.3331 10.3802 21.6504ZM4.55894 21.8488C4.58869 21.8984 4.56885 21.9479 4.51927 21.9479C4.45976 21.9479 4.41018 21.8984 4.41018 21.8488C4.41018 21.7893 4.43 21.7496 4.44984 21.7496C4.47959 21.7496 4.52918 21.7893 4.55894 21.8488ZM5.67956 21.8686C5.86798 22.057 5.8184 22.1562 5.60023 22.0273C5.40189 21.8984 5.33246 21.7496 5.48122 21.7496C5.52088 21.7496 5.61014 21.7992 5.67956 21.8686ZM3.61681 22.414C3.61681 22.6025 3.58706 22.6521 3.51764 22.5826C3.45814 22.5231 3.43831 22.4041 3.47797 22.3149C3.56723 22.0769 3.61681 22.1066 3.61681 22.414ZM2.29784 22.662C2.26809 22.7413 2.23834 22.7116 2.23834 22.6025C2.22842 22.4934 2.25817 22.4339 2.28793 22.4735C2.31768 22.5033 2.32759 22.5926 2.29784 22.662ZM4.21184 23.5049C4.4201 23.9909 4.42009 24.0702 4.20191 23.9809C3.9639 23.8917 3.60689 23.1876 3.73581 23.0587C3.89449 22.9 3.98375 22.9793 4.21184 23.5049ZM5.0052 23.7826C5.0052 23.8619 4.96554 23.9314 4.90603 23.9314C4.85645 23.9314 4.80686 23.8619 4.80686 23.7826C4.80686 23.7033 4.85645 23.6338 4.90603 23.6338C4.96554 23.6338 5.0052 23.7033 5.0052 23.7826ZM12.6413 25.4189C12.6413 25.4685 12.5719 25.5181 12.4827 25.5181C12.4033 25.5181 12.3637 25.4685 12.3934 25.4189C12.4232 25.3594 12.4926 25.3197 12.5521 25.3197C12.6017 25.3197 12.6413 25.3594 12.6413 25.4189ZM9.99348 26.0536C10.0331 26.1528 10.0034 26.1825 9.90422 26.1429C9.75547 26.0834 9.7158 25.9148 9.85464 25.9148C9.90422 25.9148 9.96373 25.9842 9.99348 26.0536ZM14.0991 26.9263C14.0694 26.9957 14.0496 26.9461 14.0496 26.8073C14.0496 26.6685 14.0694 26.6189 14.0991 26.6784C14.119 26.7478 14.119 26.8668 14.0991 26.9263ZM5.20355 27.1048C5.20355 27.1544 5.16388 27.204 5.10437 27.204C5.05479 27.204 5.0052 27.1544 5.0052 27.1048C5.0052 27.0453 5.05479 27.0056 5.10437 27.0056C5.16388 27.0056 5.20355 27.0453 5.20355 27.1048ZM11.9967 27.9974C12.0265 28.0469 12.0066 28.0965 11.9571 28.0965C11.8976 28.0965 11.848 28.0469 11.848 27.9974C11.848 27.9378 11.8678 27.8982 11.8876 27.8982C11.9174 27.8982 11.967 27.9378 11.9967 27.9974ZM11.3521 28.3643C11.2728 28.394 11.1439 28.4635 11.0744 28.523C10.9852 28.5924 10.9654 28.5825 11.0149 28.4535C11.0447 28.3643 11.1736 28.2949 11.2926 28.3048C11.4315 28.3048 11.4513 28.3246 11.3521 28.3643Z" fill="#FF5A4B"/>
<path fill-rule="evenodd" clip-rule="evenodd" d="M5.30273 27.5909C5.30273 27.6405 5.37215 27.7 5.45149 27.7397C5.53083 27.7695 5.60025 27.7496 5.60025 27.71C5.60025 27.6604 5.53083 27.6009 5.45149 27.5612C5.37215 27.5314 5.30273 27.5513 5.30273 27.5909Z" fill="#FF5A4B"/>
<path fill-rule="evenodd" clip-rule="evenodd" d="M5.89746 27.9099C5.89746 27.9595 5.94705 27.9793 5.99663 27.9495C6.05613 27.9198 6.0958 27.8702 6.0958 27.8405C6.0958 27.8206 6.05613 27.8008 5.99663 27.8008C5.94705 27.8008 5.89746 27.8504 5.89746 27.9099Z" fill="#FF5A4B"/>
</svg>
