<svg width="32" height="32" viewBox="0 0 32 32" fill="none" xmlns="http://www.w3.org/2000/svg">
<path fill-rule="evenodd" clip-rule="evenodd" d="M2.70292 16.0286C2.74686 16.0521 2.74093 16.1055 2.69106 16.1353C2.6277 16.1692 2.61769 16.2091 2.66633 16.2238C2.84739 16.2867 2.85902 16.3495 2.68652 16.4606C2.541 16.5636 2.53569 16.5947 2.6816 16.6389C2.76539 16.6724 2.87839 16.7781 2.91107 16.886C2.98585 17.0842 3.38066 17.3181 3.37619 17.1574C3.36863 17.1082 3.41379 17.0871 3.4753 17.12C3.55439 17.1623 3.56849 17.136 3.54113 16.997C3.51784 16.8715 3.53727 16.8141 3.62229 16.8031C3.68912 16.8049 3.73468 16.931 3.73037 17.087C3.71604 17.2827 3.77099 17.3913 3.88176 17.4166C3.98374 17.4373 4.05751 17.5107 4.05096 17.5863C4.03971 17.6707 4.07956 17.6807 4.18339 17.6345C4.26494 17.5877 4.45069 17.6419 4.65219 17.7723C4.88004 17.9168 4.99081 17.9422 5.01555 17.8537C5.03497 17.7963 5.09832 17.7624 5.15105 17.7906C5.21256 17.8235 5.27715 17.745 5.30782 17.6032C5.34728 17.4661 5.41719 17.3565 5.47523 17.3537C5.62708 17.3445 5.4112 17.8958 5.23584 17.949C5.14142 17.9776 5.13611 18.0086 5.20641 18.0462C5.26792 18.0792 5.33536 18.0587 5.36357 18.006C5.39178 17.9533 5.48497 17.9692 5.56752 18.0473C5.6981 18.1624 5.74327 18.1413 5.87961 17.8865C5.96894 17.7195 6.07461 17.6065 6.12734 17.6348C6.224 17.6865 6.18985 17.7925 5.98892 18.1258C5.8955 18.2793 5.89898 18.3151 5.99872 18.2554C6.08906 18.2133 6.17754 18.2381 6.22025 18.3061C6.26704 18.3877 6.29811 18.393 6.29117 18.3215C6.27952 18.2587 6.39806 18.1639 6.54644 18.119C6.69073 18.0605 6.80396 17.9968 6.79171 17.9563C6.77475 17.9246 6.85097 17.9089 6.94887 17.9161C7.08661 17.9332 7.09417 17.9825 6.94618 18.1746C6.78409 18.393 6.79226 18.42 6.98396 18.4209C7.10883 18.4199 7.20448 18.3467 7.22043 18.2535C7.23168 18.1691 7.26644 18.0408 7.29935 17.9793C7.33226 17.9177 7.29958 17.8098 7.2299 17.7499C7.10341 17.6484 7.1263 17.6267 7.39608 17.545C7.55794 17.496 7.69345 17.4328 7.68528 17.4058C7.68589 17.3836 7.73168 17.3402 7.78563 17.3239C7.84837 17.3123 7.85592 17.3615 7.81831 17.4318C7.776 17.5109 7.78518 17.6628 7.83136 17.7666C7.90205 17.9513 7.91553 17.9472 7.97033 17.7392C8.001 17.5974 8.04679 17.5541 8.08479 17.6309C8.11871 17.6943 8.15509 17.6685 8.16696 17.5618C8.21789 17.1709 8.43018 17.5557 8.40091 17.9696C8.38412 18.2545 8.23041 18.3305 8.21083 18.0713C8.21267 18.0045 8.16997 17.9364 8.11725 17.9082C8.07331 17.8847 8.03979 17.9685 8.04958 18.0981C8.07264 18.393 8.16929 18.4447 8.42681 18.3225C8.71131 18.1922 8.8583 17.8752 8.69727 17.7326C8.57548 17.6222 8.58018 17.6134 8.72548 17.6798C8.83563 17.7275 8.89898 17.6935 8.92025 17.5693C8.94111 17.4599 8.95712 17.4722 8.96827 17.6063C8.98092 17.7939 8.9985 17.8033 9.21432 17.7379C9.43014 17.6726 9.43893 17.6773 9.39007 17.832C9.36063 17.9292 9.22859 18.0281 9.0937 18.069C8.96352 18.1011 8.86909 18.1297 8.90016 18.135C8.92713 18.1268 8.97863 18.1996 9.02072 18.2899C9.06628 18.416 9.09734 18.4213 9.15846 18.3071C9.20077 18.228 9.28641 18.1947 9.35671 18.2323C9.427 18.2699 9.539 18.2507 9.60768 18.1857C9.68984 18.1167 9.78303 18.1326 9.87846 18.2289C9.97389 18.3252 10.0671 18.3411 10.1492 18.2721C10.3183 18.1251 10.4542 18.2091 10.3601 18.3849C10.3178 18.464 10.338 18.7008 10.3993 18.9032C10.5109 19.2228 10.5542 19.2686 10.7465 19.2472C10.8943 19.2245 10.9858 19.1379 11.0441 18.9656C11.0836 18.8285 11.1528 18.7412 11.188 18.76C11.2319 18.7835 11.1589 19.0044 11.0273 19.2505C10.8768 19.5317 10.8368 19.6911 10.9083 19.6841C10.9798 19.6772 11.0538 19.5811 11.0751 19.4569C11.1052 19.3373 11.1381 19.2758 11.1497 19.3386C11.183 19.4242 11.1482 19.5525 10.9859 19.9404C10.9759 19.9803 11.072 20.0543 11.2091 20.0937C11.43 20.1667 11.4382 20.1937 11.2996 20.3682C11.2209 20.473 11.1833 20.5433 11.2237 20.5311C11.2642 20.5188 11.3408 20.6502 11.3946 20.8033L11.4932 21.1048L11.6179 20.7872C11.7285 20.496 11.742 20.4919 11.7763 20.7024C11.7996 20.8279 11.7736 20.9609 11.7285 20.982C11.6786 21.0118 11.7037 21.0705 11.7916 21.1175C11.8883 21.1692 11.9516 21.1353 11.9823 20.9935C12.0471 20.7456 12.1573 20.7932 12.2073 21.0799C12.2218 21.2007 12.2159 21.254 12.1995 21.2001C12.1744 21.1414 12.0489 21.1647 11.9216 21.2548C11.7127 21.3917 11.6933 21.4492 11.7417 21.6333C11.803 21.8356 11.8165 21.8315 11.8578 21.6276C11.879 21.5033 11.9348 21.4202 11.97 21.439C12.1106 21.5142 12.1478 21.7827 12.0292 21.8776C11.947 21.9466 11.9728 21.983 12.0883 21.9996C12.2172 22.0121 12.2288 22.0748 12.1577 22.2289C12.1054 22.3478 12.0348 22.4796 12.0026 22.5189C11.9703 22.5581 12.0324 22.5687 12.1444 22.5495C12.2611 22.5215 12.3708 22.422 12.3915 22.3201C12.4557 22.0944 12.5951 22.2142 12.614 22.4956C12.6232 22.6475 12.5815 22.7043 12.4519 22.7141C12.3001 22.7233 12.286 22.7496 12.3397 22.9027C12.3806 23.0376 12.3981 23.047 12.4012 22.9356C12.3943 22.8641 12.4137 22.8067 12.4489 22.8255C12.4752 22.8396 12.4856 22.9469 12.4691 23.0623C12.4478 23.1866 12.4993 23.2594 12.5796 23.2571C12.6957 23.2514 12.7245 23.1764 12.7266 22.9402C12.7368 22.7309 12.7751 22.6383 12.8554 22.6361C12.9269 22.6291 12.9398 22.6473 12.8852 22.6859C12.7855 22.7456 12.8747 23.0646 13.093 23.3961C13.2129 23.5733 13.2076 23.6044 13.0234 23.6528C12.9108 23.6943 12.7929 23.7668 12.7647 23.8196C12.7271 23.8899 12.7534 23.904 12.8614 23.8713C13.0502 23.8141 13.3657 24.175 13.2811 24.3332C13.2482 24.3947 13.3013 24.5701 13.4083 24.7291C13.5019 24.8922 13.5644 25.05 13.5456 25.0851C13.3882 25.2948 13.3946 25.3886 13.5828 25.3536C13.7488 25.3181 13.7522 25.3539 13.6488 25.5472C13.583 25.6702 13.5617 25.7945 13.6144 25.8227C13.6584 25.8462 13.6694 25.9312 13.6318 26.0015C13.5942 26.0718 13.6052 26.1568 13.6579 26.185C13.7106 26.2132 13.7476 26.1652 13.7319 26.089C13.7297 26.0087 13.8067 25.8012 13.8873 25.6296C14.0236 25.3748 14.0255 25.3079 13.8667 25.2456C13.739 25.1885 13.7144 25.1076 13.7762 24.9711C13.8238 24.8609 13.8868 24.6799 13.9121 24.5691C13.9375 24.4584 13.9722 24.33 13.9911 24.2949C14.0058 24.2462 13.9618 24.2227 13.8815 24.225C13.8012 24.2272 13.7971 24.2137 13.8652 24.171C14.0647 24.0517 14.1331 24.1561 14.0671 24.4486C14.0063 24.7099 14.0151 24.7146 14.1613 24.5894C14.3162 24.4688 14.325 24.4735 14.2256 24.6803C14.1774 24.8128 14.1068 24.9446 14.0746 24.9838C14.047 25.0142 14.0574 25.1215 14.0948 25.2207C14.1661 25.3831 14.09 25.7154 13.8678 26.173C13.8061 26.3095 13.8218 26.3857 13.9062 26.397C14.1506 26.426 14.2201 26.6554 14.0247 26.7882C13.8973 26.8783 13.8679 26.9756 13.921 27.1509C13.9864 27.3667 14.004 27.3761 14.1225 27.2813C14.1912 27.2163 14.2715 27.2141 14.3101 27.2687C14.344 27.332 14.3763 27.2928 14.3882 27.1861C14.4095 27.0619 14.4324 27.0402 14.4792 27.1218C14.5219 27.1898 14.5752 27.1957 14.6081 27.1342C14.6457 27.0639 14.689 27.1097 14.7475 27.254C14.8549 27.5602 15.0219 27.6495 15.055 27.4186C15.0716 27.3031 15.0945 27.2814 15.1413 27.363C15.184 27.431 15.2373 27.437 15.2608 27.393C15.289 27.3403 15.2686 27.2729 15.2159 27.2447C15.172 27.2212 15.1644 27.1719 15.2143 27.1421C15.2641 27.1122 15.2713 27.0143 15.2339 26.9152C15.1965 26.8161 15.1867 26.6865 15.2149 26.6338C15.2431 26.5811 15.2777 26.6222 15.284 26.716C15.2932 26.8678 15.333 26.8778 15.5401 26.8078C15.675 26.7669 15.7207 26.7236 15.6404 26.7258C15.4886 26.735 15.5139 26.6242 15.6946 26.5401C15.8348 26.4681 16.0868 26.5464 15.9554 26.6231C15.9055 26.6529 15.8996 26.7062 15.9523 26.7344C16.005 26.7627 16.1311 26.7171 16.2362 26.6264C16.4052 26.4794 16.4093 26.4929 16.2823 26.7302C16.1783 26.9458 16.1818 26.9816 16.3477 26.946C16.4597 26.9268 16.5529 26.9428 16.574 26.9879C16.5815 27.0372 16.6835 27.0578 16.7867 27.0339C16.9479 27.0072 16.9608 27.0254 16.8429 27.0979C16.7701 27.1494 16.8059 27.1459 16.932 27.1004C17.0493 27.0501 17.1942 26.9694 17.24 26.9261C17.2858 26.8828 17.3432 26.9022 17.3683 26.9609C17.3935 27.0195 17.3295 27.0757 17.2357 27.082C16.9543 27.101 17.2103 27.1928 17.5228 27.1791C17.728 27.1759 17.7644 27.1502 17.6636 27.0849C17.5846 27.0426 17.5067 26.9558 17.5085 26.8889C17.5057 26.8309 17.5415 26.8274 17.5976 26.8914C17.6714 26.9648 17.7524 26.9403 17.8586 26.805C17.9508 26.6961 17.9756 26.6076 17.9263 26.6151C17.8683 26.618 17.8519 26.564 17.8942 26.4849C17.9318 26.4146 18.0222 26.3726 18.089 26.3744C18.1599 26.3897 18.2057 26.3464 18.1941 26.2837C18.1491 26.1353 17.7338 26.32 17.7471 26.4853C17.7452 26.5522 17.723 26.5515 17.6891 26.4882C17.5826 26.3069 17.7735 26.0134 17.9405 26.1028C18.0283 26.1498 18.0964 26.1071 18.1494 25.9659C18.2505 25.6922 18.0679 25.5267 17.8841 25.7222L17.7414 25.8833L17.6732 25.6094C17.6371 25.4657 17.6684 25.3016 17.7323 25.2454C17.8832 25.1114 17.9488 25.1578 17.8196 25.3147C17.755 25.3932 17.7478 25.4911 17.7871 25.5234C17.8304 25.5692 17.9313 25.4649 18.0342 25.2939C18.1376 25.1006 18.1576 25.0209 18.0761 25.0677C17.9811 25.1185 17.9688 25.0781 18.044 24.9375C18.1663 24.709 18.014 24.571 17.8918 24.7995C17.8031 24.9442 17.799 24.9307 17.7647 24.7202C17.7269 24.4739 17.8608 24.3082 17.9672 24.4895C18.0012 24.5529 18.0416 24.5406 18.0529 24.4562C18.0641 24.3718 18.022 24.2815 17.9605 24.2485C17.8902 24.2109 17.8945 24.055 17.9669 23.8564C18.0387 23.68 18.0706 23.4936 18.0313 23.4613C17.9968 23.4202 18.0074 23.3581 18.0526 23.3371C18.1025 23.3072 18.1131 23.2451 18.0792 23.1818C18.0493 23.1319 17.9866 23.1435 17.9443 23.2226C17.902 23.3017 17.8392 23.3133 17.8006 23.2588C17.7667 23.1954 17.7961 23.0981 17.8689 23.0466C17.9605 22.96 17.9476 22.9418 17.8221 22.9651C17.6831 22.9925 17.675 22.9655 17.7543 22.8384C17.8665 22.6498 18.0741 22.5574 17.9801 22.7331C17.9472 22.7947 17.9548 22.8439 17.9952 22.8317C18.0404 22.8106 18.0752 22.6823 18.0701 22.5439L18.0728 22.2854L17.872 22.4493C17.7623 22.5488 17.6237 22.7233 17.5667 22.851C17.5096 22.9787 17.3751 23.1667 17.2613 23.2528C17.0788 23.4038 17.0747 23.3903 17.258 23.0476C17.3715 22.8144 17.4069 22.6638 17.3353 22.6707C17.2685 22.6689 17.2428 22.6325 17.2663 22.5886C17.2945 22.5359 17.3619 22.5154 17.4146 22.5436C17.4762 22.5765 17.5408 22.4981 17.5937 22.3569C17.6432 22.1799 17.6796 22.1541 17.7216 22.2445C17.759 22.3436 17.8465 22.2435 18.034 21.9142C18.1969 21.6096 18.1928 21.4906 18.0215 21.5572L17.7646 21.6571L17.9449 21.4258C18.0377 21.2946 18.1236 21.0919 18.1179 20.9758C18.1181 20.8064 18.1692 20.732 18.3627 20.666C18.5023 20.6164 18.5575 20.5555 18.5048 20.5273C18.4433 20.4943 18.3805 20.506 18.3523 20.5587C18.3288 20.6026 18.279 20.6325 18.235 20.609C18.1999 20.5902 18.2675 20.4003 18.3804 20.1894C18.4932 19.9785 18.6042 19.8345 18.63 19.8708C18.6598 19.9207 18.7049 19.8997 18.7291 19.8335C18.8049 19.6706 18.8383 19.2702 18.7643 19.3663C18.5793 19.6064 18.4642 19.737 18.3921 19.7662C18.2707 19.8029 18.4434 19.5224 18.6582 19.3321C18.8044 19.2069 18.8238 19.1494 18.7359 19.1024C18.6656 19.0648 18.6164 19.0724 18.6151 19.1169C18.6139 19.1615 18.5646 19.169 18.4943 19.1314C18.424 19.0938 18.4212 19.0358 18.4711 19.0059C18.5344 18.972 18.5087 18.9356 18.402 18.9238C18.2021 18.896 18.2275 18.7852 18.4298 18.7239C18.5377 18.6912 18.5531 18.6203 18.4946 18.476C18.4104 18.2953 18.4017 18.2906 18.3845 18.4284C18.3679 18.5438 18.3092 18.569 18.195 18.5079C18.0544 18.4326 18.082 18.4022 18.397 18.2994C18.5993 18.2381 18.774 18.2073 18.7863 18.2478C18.8061 18.3375 19.3571 17.9202 19.3966 17.7831C19.416 17.7257 19.4464 17.7533 19.475 17.8477C19.5159 17.9826 19.5915 17.9891 19.8525 17.9027C20.0326 17.8408 20.2243 17.8416 20.2852 17.8968C20.3326 17.9561 20.4568 17.9774 20.5472 17.9353C20.7724 17.8523 20.8778 17.9088 20.819 18.1033C20.7754 18.227 20.8153 18.237 21.0621 18.1769C21.2328 18.1326 21.3617 18.1451 21.3599 18.2119C21.3697 18.3415 21.5401 18.4666 21.5438 18.3329C21.5363 18.2837 21.6103 18.1876 21.7059 18.1145C21.852 17.9892 21.8608 17.9939 21.7615 18.2007L21.6527 18.4251L21.9325 18.3035C22.0903 18.241 22.2023 18.2218 22.1835 18.257C22.1647 18.2921 22.2356 18.3074 22.3388 18.2835C22.442 18.2596 22.6055 18.3132 22.7185 18.4189C22.8315 18.5246 22.9288 18.554 22.957 18.5013C22.9852 18.4486 23.0298 18.4498 23.0684 18.5044C23.0982 18.5542 23.1516 18.5602 23.1798 18.5074C23.208 18.4547 23.3147 18.4666 23.4107 18.5406C23.5243 18.624 23.6134 18.6264 23.6335 18.5467C23.6529 18.4893 23.7514 18.4742 23.8481 18.5259C23.9535 18.5823 24.0567 18.5584 24.1172 18.4665C24.1877 18.3347 24.1965 18.3394 24.1781 18.5217C24.155 18.7127 24.1638 18.7174 24.2917 18.6051C24.3739 18.536 24.4812 18.5256 24.5374 18.5896C24.6369 18.6993 24.9183 18.6803 25.4532 18.5257C25.6238 18.4814 25.6772 18.4873 25.6348 18.5664C25.5831 18.663 25.6095 18.6772 25.762 18.6457C25.8652 18.6218 25.9831 18.5493 26.016 18.4878C26.0536 18.4175 26.1258 18.3882 26.1785 18.4164C26.2224 18.44 26.2676 18.4189 26.2559 18.3562C26.2531 18.2981 26.3171 18.2419 26.3886 18.235C26.4777 18.2375 26.4818 18.2509 26.4137 18.2936C26.3322 18.3404 26.3573 18.3991 26.4715 18.4602C26.6121 18.5354 26.6843 18.5062 26.7736 18.3393C26.8865 18.1284 26.8736 18.1102 26.6373 18.1081C26.499 18.1132 26.3794 18.0831 26.3625 18.0515C26.3543 18.0245 26.1924 18.0735 26.0111 18.18C25.8298 18.2864 25.6586 18.353 25.6099 18.3383C25.5045 18.2819 25.6713 18.0547 25.809 18.0718C25.8981 18.0743 25.8988 18.052 25.8021 18.0003C25.7277 17.9492 25.6204 17.9596 25.5658 17.9982C25.5154 18.0503 25.5084 17.9788 25.5526 17.8329C25.5967 17.687 25.6572 17.595 25.6742 17.6267C25.7122 17.7036 26.0541 17.5926 26.0836 17.4953C26.1024 17.4602 26.1698 17.4398 26.2454 17.4463C26.3251 17.4664 26.3192 17.5197 26.2276 17.6063C26.1044 17.7099 26.1354 17.7153 26.3654 17.6235C26.5366 17.5569 26.6926 17.5612 26.7616 17.6434C26.8178 17.7074 26.9866 17.7299 27.1438 17.6896C27.301 17.6494 27.4346 17.6531 27.4604 17.6895C27.537 17.8209 28.0275 17.4956 28.1868 17.2191C28.2802 17.0656 28.4351 16.9451 28.5782 16.9312C28.8197 16.9022 28.8244 16.8934 28.7556 16.6418C28.688 16.3457 28.5509 16.3062 28.4591 16.5623C28.4255 16.6461 28.4026 16.6677 28.418 16.5968C28.4552 16.3794 28.099 16.2001 27.7806 16.2671C27.6099 16.3114 27.5208 16.309 27.5889 16.2662C27.6435 16.2276 27.6723 16.1526 27.6384 16.0893C27.6085 16.0394 27.5505 16.0423 27.5176 16.1038C27.4706 16.1916 27.4489 16.1687 27.4303 16.0345C27.4118 15.9002 27.3813 15.8726 27.3038 15.9329C27.2534 15.985 27.1461 15.9954 27.0758 15.9578C27.0055 15.9202 26.9198 15.9535 26.8775 16.0326C26.8399 16.1029 26.7772 16.1145 26.7473 16.0646C26.7087 16.0101 26.5399 15.9876 26.3652 16.0184C25.9529 16.0917 25.6752 15.977 25.9638 15.8602C26.1128 15.793 26.1316 15.7578 26.0638 15.6311C25.9363 15.4046 25.8607 15.3981 25.6189 15.5965C25.4498 15.7434 25.4006 15.751 25.4306 15.6314C25.4601 15.5341 25.4057 15.4033 25.3232 15.3253C25.2014 15.2149 25.1609 15.2271 25.139 15.3737C25.0965 15.6222 24.7946 15.5737 24.7838 15.3193C24.7753 15.1451 24.7577 15.1357 24.6643 15.2892C24.6038 15.3812 24.5427 15.4954 24.5279 15.544C24.5132 15.5927 24.3591 15.5215 24.1711 15.387C23.9175 15.2061 23.798 15.1761 23.649 15.2433C23.3956 15.379 22.8822 15.24 22.8743 15.0436C22.8598 14.9228 22.8064 14.9168 22.621 15.0098C22.3406 15.1536 22.1238 15.0941 22.3022 14.9296C22.4026 14.8477 22.3674 14.8289 22.1365 14.7958C21.9765 14.778 21.8435 14.752 21.8259 14.7426C21.8218 14.7291 21.8042 14.7197 21.7819 14.7191C21.5381 14.6678 21.4333 14.5891 21.4897 14.4836C21.5273 14.4133 21.5081 14.3013 21.4519 14.2373C21.4004 14.1646 21.3847 14.0884 21.4299 14.0673C21.4663 14.0416 21.4189 13.9823 21.3087 13.9347C21.2033 13.8782 21.0737 13.888 21.0097 13.9442C20.9458 14.0004 20.958 14.0409 21.0295 14.034C21.0964 14.0358 21.1532 14.0775 21.156 14.1355C21.1677 14.1983 21.1096 14.2011 21.0352 14.15C20.8824 14.0343 20.854 13.7705 20.982 13.6581C21.0412 13.6107 21.0261 13.5122 20.9658 13.4347C20.7973 13.2428 20.711 13.2984 20.7886 13.5547C20.8254 13.6761 20.8041 13.8003 20.7496 13.8389C20.6909 13.8641 20.6541 13.7427 20.6638 13.5557C20.6646 13.364 20.6426 13.1939 20.5986 13.1704C20.5547 13.1469 20.5525 13.0666 20.5948 12.9875C20.6324 12.9172 20.6072 12.8586 20.5492 12.8614C20.4824 12.8596 20.466 12.8056 20.5036 12.7353C20.546 12.6562 20.4998 12.5524 20.3943 12.496C20.2977 12.4443 20.255 12.3762 20.3136 12.3511C20.3999 12.2955 20.3304 12.0662 20.1898 11.991C20.1547 11.9722 20.1273 11.8332 20.1269 11.6861C20.1312 11.5301 20.0957 11.3642 20.0348 11.309C19.9569 11.2221 19.9065 11.2742 19.8416 11.5221C19.7787 11.7032 19.7223 11.8086 19.7147 11.7594C19.6984 11.7054 19.6187 11.6854 19.5336 11.6964C19.4304 11.7203 19.4047 11.6839 19.4517 11.596C19.4893 11.5257 19.5433 11.5094 19.5731 11.5593C19.624 11.6543 19.7597 11.4218 19.8399 11.103C19.8658 10.9699 19.846 10.8802 19.788 10.883C19.7299 10.8859 19.7183 10.8232 19.7559 10.7529C19.8969 10.4892 19.6642 10.5229 19.4381 10.7976C19.1562 11.1554 19.0322 10.9647 19.3053 10.6022C19.4257 10.4405 19.4827 10.3128 19.43 10.2846C19.3773 10.2564 19.3785 10.2118 19.4237 10.1908C19.4735 10.161 19.4697 9.97806 19.4354 9.76755C19.3964 9.56584 19.3326 9.45261 19.2956 9.50063C19.1875 9.70274 19.0628 9.53433 19.1236 9.27295C19.163 9.13582 19.1391 9.03261 19.0723 9.03076C19.0143 9.03362 18.9166 8.85703 18.8647 8.63712C18.7971 8.34098 18.7327 8.25003 18.6113 8.2868C18.4764 8.32766 18.4713 8.1893 18.6239 7.67186C18.6339 7.63201 18.6486 7.58337 18.6539 7.5523C18.668 7.52594 18.5707 7.4965 18.4459 7.49751C18.263 7.50137 18.2325 7.47378 18.2849 7.35484C18.3137 7.27984 18.3525 7.16499 18.3672 7.11635C18.3867 7.05893 18.4114 6.97044 18.4308 6.91301C18.4543 6.86907 18.4198 6.82799 18.353 6.82615C18.2861 6.8243 18.2962 6.78445 18.3601 6.72825C18.4288 6.66327 18.4489 6.58357 18.3961 6.55536C18.3481 6.51837 18.2649 6.46257 18.2081 6.42087C18.1554 6.39266 18.1315 6.28945 18.1515 6.20975C18.1728 6.08549 18.1816 6.0902 18.2049 6.21568C18.2235 6.34995 18.241 6.35936 18.3279 6.2815C18.4512 6.1779 18.3754 5.85478 18.2317 5.89094C18.1777 5.90728 18.2154 5.83699 18.3075 5.72807C18.4819 5.55008 18.4866 5.5413 18.252 5.64182L18.0085 5.73764L18.1377 5.5807C18.1982 5.48874 18.2395 5.28479 18.2175 5.11475C18.1844 4.85969 18.1587 4.82331 18.0272 4.89993C17.887 4.97185 17.8782 4.96715 17.9306 4.84821C17.9594 4.77321 18.0252 4.65019 18.081 4.56702C18.1321 4.49264 18.144 4.38596 18.1101 4.3226C18.0802 4.27273 18.0087 4.27967 17.9711 4.34997C17.8037 4.59948 17.7761 4.62993 17.6547 4.6667C17.5873 4.68713 17.5879 4.66485 17.6606 4.61336C17.724 4.57944 17.7393 4.50853 17.6954 4.48502C17.481 4.33642 17.4506 4.30883 17.4267 4.20562C17.3491 3.94933 17.2258 4.05293 17.2987 4.31801C17.3431 4.48866 17.3698 4.64991 17.351 4.68506C17.2946 4.7905 17.0764 4.45899 16.983 4.12647C16.9266 3.90793 16.8786 3.87093 16.8389 4.01548C16.8089 4.13504 16.7537 4.19593 16.7327 4.15076C16.7028 4.10089 16.6313 4.10783 16.5855 4.15115C16.5262 4.19856 16.5093 4.16688 16.561 4.07022C16.6039 3.96886 16.6011 3.91082 16.5471 3.92716C16.4034 3.96332 16.2724 4.18708 16.3603 4.2341C16.4042 4.2576 16.339 4.35835 16.2293 4.45787C16.1107 4.55268 16.0267 4.68857 16.0248 4.7554C16.0359 4.84042 16.0048 4.8351 15.9621 4.76704C15.9241 4.6902 15.9448 4.58822 16.0087 4.53203C16.1778 4.38511 16.1569 4.17052 15.9804 4.26818C15.8671 4.33193 15.859 4.30495 15.9295 4.17314C15.9863 4.05285 15.9439 4.02641 15.8024 4.09383C15.6851 4.14409 15.5841 4.24831 15.591 4.31984C15.5892 4.38667 15.5798 4.40424 15.5546 4.34559C15.5383 4.29163 15.4369 4.2487 15.3425 4.2773C15.2036 4.30467 15.1596 4.28116 15.1545 4.1428C15.14 4.02202 15.1008 3.98973 14.9929 4.02241C14.8715 4.05918 14.8521 4.11661 14.9017 4.2562C14.9554 4.40928 14.9225 4.47079 14.6989 4.65633C14.5575 4.7728 14.4424 4.90338 14.4547 4.94384C14.4669 4.98431 14.4183 4.96959 14.3263 4.90909C14.2303 4.8351 14.224 4.74129 14.3121 4.61888C14.3813 4.53163 14.402 4.42964 14.3493 4.40144C14.2175 4.33091 14.0789 4.50543 13.9928 4.87758C13.9509 5.10381 13.8716 5.23091 13.7771 5.25951C13.5883 5.31671 13.5131 5.45731 13.6784 5.44404C13.7675 5.44651 13.7434 5.51272 13.596 5.68253C13.4022 5.91794 13.4221 6.00767 13.6916 6.09537C13.7403 6.11009 13.7302 6.14994 13.6804 6.17977C13.6217 6.2049 13.6064 6.27582 13.6403 6.33918C13.683 6.40724 13.6454 6.47753 13.518 6.56765C13.3274 6.69167 13.366 6.74625 13.8194 6.95496C13.9425 7.02078 13.9553 7.03897 13.8352 7.03119C13.4976 6.98619 13.3708 7.05403 13.4193 7.23817C13.4677 7.42231 13.7284 7.50532 13.7199 7.33119C13.717 7.27315 13.6602 7.23146 13.5934 7.22961C13.5131 7.23185 13.5137 7.20957 13.5817 7.16687C13.7401 7.08207 13.8535 7.33489 13.801 7.62325C13.7844 7.73871 13.8224 7.81556 13.9027 7.81332C14.0053 7.8117 13.9959 7.82928 13.8651 7.88362C13.6622 7.96718 13.6548 8.23449 13.8405 8.28868C13.9202 8.30871 13.9589 8.36328 13.9394 8.42071C13.8301 8.66737 13.7744 9.06711 13.8447 9.10472C13.8887 9.12823 13.8686 9.20793 13.804 9.2864C13.7354 9.35138 13.7122 9.54246 13.7525 9.69963C13.7927 9.85679 13.7665 10.1593 13.6982 10.3714C13.63 10.5835 13.6028 10.7611 13.6432 10.7488C13.6878 10.7501 13.6449 10.8514 13.5474 10.9914C13.4499 11.1314 13.411 11.2463 13.4725 11.2792C13.5252 11.3074 13.4964 11.3824 13.4001 11.4778C13.1718 11.6721 12.9459 12.2633 13.1113 12.2501C13.1916 12.2478 13.1816 12.2877 13.0765 12.3784C12.8482 12.5727 12.6056 12.9629 12.6935 13.0099C12.7374 13.0334 12.6546 13.1247 12.5226 13.2236C12.3771 13.3266 12.2573 13.466 12.2466 13.5281C12.2401 13.6037 12.1855 13.6423 12.1416 13.6188C12.0889 13.5906 11.938 13.7247 11.7947 13.908C11.6467 14.1 11.3862 14.3336 11.2184 14.436C11.0506 14.5383 10.8586 14.7069 10.8022 14.8124C10.7411 14.9266 10.6508 14.9687 10.5453 14.9123C10.4662 14.87 10.1917 14.9605 9.93361 15.1049C9.66608 15.267 9.43677 15.3364 9.38936 15.2771C9.28576 15.1539 8.75113 15.1391 8.72107 15.2587C8.71984 15.3032 8.6571 15.3149 8.59089 15.2907C8.2868 15.1619 8.23345 15.156 8.24795 15.2768C8.24549 15.3659 8.17928 15.3418 8.01356 15.2079C7.86132 15.0699 7.72419 15.0305 7.58052 15.0666C7.45912 15.1034 7.30318 15.0991 7.22409 15.0568C7.14501 15.0145 7.08635 15.0396 7.0892 15.0976C7.09614 15.1692 7.15704 15.2243 7.22857 15.2174C7.30419 15.224 7.21855 15.2573 7.05259 15.2928C6.88194 15.3371 6.7348 15.3375 6.71375 15.2923C6.70149 15.2519 6.76956 15.2092 6.86336 15.2029C7.01521 15.1937 7.01583 15.1714 6.92918 15.0798C6.79514 14.929 6.60059 14.8701 6.27524 14.8656C6.06535 14.8776 6.03489 14.85 6.09131 14.7446C6.13363 14.6655 6.09092 14.5974 5.96728 14.5539C5.86122 14.5197 5.79154 14.4598 5.81975 14.4071C5.84325 14.3632 5.81812 14.3045 5.77419 14.281C5.72146 14.2528 5.644 14.3131 5.59699 14.401C5.54527 14.4976 5.44492 14.5796 5.37339 14.5865C5.27958 14.5928 5.26077 14.628 5.31635 14.7142C5.36314 14.7958 5.33555 14.8262 5.20659 14.8137C5.06006 14.7919 5.06129 14.7473 5.23156 14.5558C5.35603 14.4077 5.39896 14.3063 5.33745 14.2734C5.28473 14.2452 5.21728 14.2656 5.18908 14.3183C5.16557 14.3623 5.12102 14.361 5.0824 14.3065C5.04848 14.2431 5.01619 14.2824 5.00432 14.389C4.98714 14.5268 4.95138 14.5302 4.8302 14.3976C4.70432 14.2737 4.64628 14.2766 4.57575 14.4084C4.52404 14.5051 4.3967 14.5952 4.29349 14.6191C4.05131 14.6703 4.06458 14.8357 4.31533 14.9585C4.49107 15.0526 4.50455 15.0485 4.37929 14.9023C4.27978 14.7926 4.28572 14.7392 4.38831 14.7376C4.47333 14.7266 4.54363 14.7642 4.55589 14.8047C4.56815 14.8451 4.65663 14.8699 4.75514 14.8548C4.88533 14.8227 4.90698 14.8456 4.84586 14.9598C4.79885 15.0477 4.7361 15.0593 4.70627 15.0095C4.66765 14.9549 4.6278 14.9449 4.60429 14.9888C4.54317 15.103 4.7463 15.3361 4.89814 15.3269C4.96089 15.3152 4.91448 15.3808 4.79185 15.4621C4.66922 15.5435 4.55476 15.6518 4.54474 15.6916C4.53002 15.7403 4.49487 15.7215 4.45625 15.6669C4.42233 15.6035 4.44769 15.4928 4.52107 15.419C4.66374 15.258 4.40891 15.1216 4.24866 15.2732C4.18939 15.3207 4.20164 15.3611 4.28196 15.3589C4.36698 15.3479 4.36922 15.4282 4.29399 15.5688C4.11533 15.9027 3.99416 15.77 4.12071 15.3856C4.20841 15.1161 4.18452 15.0129 3.98835 14.8514C3.82732 14.7087 3.78523 14.6184 3.8674 14.5493C3.93137 14.4931 3.942 14.431 3.89807 14.4075C3.84534 14.3793 3.75317 14.4882 3.67732 14.6511C3.60619 14.8052 3.49581 14.927 3.43368 14.9163C3.35807 14.9098 3.29879 14.9572 3.28754 15.0416C3.28099 15.1172 3.19289 15.2396 3.08845 15.3081C2.94763 15.4022 2.91472 15.4638 2.98849 15.5371C3.04877 15.6146 3.03467 15.641 2.89508 15.6906C2.68804 15.7607 2.57111 15.9581 2.70292 16.0286ZM3.16686 15.8586C3.22306 15.9226 3.34854 15.8993 3.47588 15.8092C3.73116 15.6067 3.77285 15.5499 3.62979 15.5638C3.57175 15.5666 3.51964 15.5162 3.51271 15.4446C3.51455 15.3778 3.59487 15.3756 3.7179 15.4414C3.89364 15.5354 3.9012 15.5847 3.74381 15.7943C3.65101 15.9255 3.54657 15.994 3.51673 15.9441C3.4869 15.8942 3.42824 15.9194 3.39063 15.9897C3.34832 16.0687 3.27147 16.1067 3.22753 16.0832C3.16602 16.0503 3.13781 16.1031 3.1382 16.2502C3.1349 16.531 3.10669 16.5837 2.98367 16.5179C2.93973 16.4944 2.93218 16.4451 2.98205 16.4153C3.03192 16.3855 3.02498 16.3139 2.97348 16.2412C2.91729 16.1772 2.9122 16.0389 2.96862 15.9334C3.03444 15.8104 3.10188 15.79 3.16686 15.8586ZM3.1733 16.755C3.14386 16.8523 3.16776 16.9555 3.22048 16.9837C3.27321 17.0119 3.28546 17.0524 3.23621 17.0599C3.10132 17.1008 3.02715 16.8803 3.12057 16.7268C3.19988 16.5997 3.20867 16.6044 3.1733 16.755ZM3.97059 16.3C3.96382 16.545 3.82462 16.7418 3.69281 16.6713C3.64888 16.6478 3.64663 16.5674 3.68425 16.4971C3.72186 16.4268 3.72371 16.36 3.67978 16.3365C3.47644 16.2729 3.48298 16.1973 3.71637 16.1413C3.95917 16.0678 3.96796 16.0725 3.97059 16.3ZM4.20075 16.0388C4.21832 16.0482 4.21116 16.1461 4.1858 16.2569C4.16045 16.3676 4.10056 16.4373 4.05662 16.4138C4.01268 16.3903 4.01985 16.2924 4.07156 16.1957C4.12328 16.0991 4.18317 16.0294 4.20075 16.0388ZM4.50561 16.4619C4.66193 16.6133 4.74634 16.6246 5.28567 16.6306C5.43282 16.6302 5.56116 16.665 5.57341 16.7054C5.6108 16.8045 5.38495 16.9098 5.32529 16.81C5.30425 16.7649 5.22801 16.7806 5.15525 16.8321C5.09128 16.8883 5.09229 17.0131 5.14787 17.0994C5.19874 17.1944 5.2016 17.2525 5.14009 17.2196C5.08736 17.1914 5.02014 17.0424 5.00217 16.8858C4.97727 16.6577 4.94682 16.6301 4.8154 16.7068C4.60244 16.8302 4.18003 16.6268 4.27406 16.451C4.32578 16.3544 4.3926 16.3562 4.50561 16.4619ZM4.83516 17.2825C4.8791 17.306 4.88951 17.4133 4.86415 17.524C4.81344 17.7456 4.66221 17.7325 4.69065 17.5103C4.70968 17.3058 4.74729 17.2355 4.83516 17.2825ZM6.15545 16.7795C6.21164 16.8434 6.17117 16.8557 6.07451 16.804C5.97314 16.7611 5.93453 16.7065 5.98379 16.6989C6.02425 16.6867 6.10804 16.7202 6.15545 16.7795ZM7.61728 15.188C7.62954 15.2285 7.59602 15.3123 7.53675 15.3597C7.47277 15.4159 7.4605 15.3754 7.51222 15.2787C7.55515 15.1774 7.60972 15.1388 7.61728 15.188ZM9.13491 15.2879C9.20521 15.3256 9.25732 15.376 9.24791 15.3936C9.23851 15.4112 9.15819 15.4134 9.06909 15.411C8.98469 15.3997 8.93258 15.3492 8.95609 15.3053C8.9843 15.2526 9.06461 15.2503 9.13491 15.2879ZM14.0702 6.59183C14.1898 6.62188 14.246 6.68586 14.2131 6.74737C14.1849 6.80009 14.0776 6.8105 13.9809 6.75879C13.8843 6.70707 13.8193 6.63839 13.8381 6.60324C13.8569 6.5681 13.9595 6.56647 14.0702 6.59183ZM14.8875 5.25454C15.0193 5.32506 14.896 5.91465 14.7441 5.92383C14.6726 5.93077 14.6509 5.90788 14.7096 5.88275C14.7595 5.85292 14.7948 5.7023 14.7904 5.54167C14.7907 5.31577 14.823 5.22006 14.8875 5.25454ZM14.652 6.03275C14.7222 6.07036 14.765 6.13842 14.7367 6.19114C14.7132 6.23508 14.6423 6.21974 14.5861 6.15577C14.5346 6.08301 14.4919 6.01495 14.5013 5.99737C14.5107 5.9798 14.5817 5.99513 14.652 6.03275ZM10.0311 15.4509C10.0832 15.5014 10.1459 15.4898 10.1606 15.4411C10.1888 15.3884 10.2751 15.3328 10.3695 15.3042C10.4997 15.2722 10.5301 15.2998 10.4901 15.4592C10.4694 15.5611 10.4277 15.6179 10.3979 15.5681C10.3768 15.5229 10.2865 15.565 10.2037 15.6563C10.0752 15.791 10.0441 15.7857 9.98157 15.6279C9.88513 15.4068 9.90456 15.3493 10.0311 15.4509ZM14.3471 7.3842C14.4274 7.38196 14.4538 7.39607 14.3951 7.4212C14.3411 7.43754 14.3029 7.53012 14.3268 7.63333C14.3454 7.7676 14.3319 7.77168 14.2412 7.66662C14.1071 7.51578 14.1507 7.39215 14.3471 7.3842ZM15.8254 4.87473C15.8399 4.99551 15.8955 5.08177 15.9359 5.06951C15.9764 5.05725 15.9435 5.11876 15.8607 5.21011C15.6998 5.384 15.6273 5.26608 15.7027 4.95606C15.7589 4.75251 15.7998 4.7254 15.8254 4.87473ZM15.1818 6.5423C15.1994 6.5517 15.1747 6.64019 15.1229 6.73685C15.0712 6.83351 14.9938 6.89379 14.9498 6.87028C14.9059 6.84678 14.9306 6.75829 15.0087 6.67574C15.0868 6.59318 15.1642 6.5329 15.1818 6.5423ZM16.1216 5.60968C16.1919 5.64729 16.2083 5.70124 16.1584 5.73108C16.1085 5.76091 16.0423 5.73679 16.0125 5.68692C15.9406 5.54671 15.9722 5.52975 16.1216 5.60968ZM11.3136 14.7017C11.3851 14.6947 11.3732 14.8014 11.2892 14.9373C11.1717 15.157 11.1582 15.1611 11.1725 14.9653C11.1803 14.8451 11.1922 14.7384 11.1969 14.7296C11.1928 14.7162 11.2467 14.6998 11.3136 14.7017ZM15.4213 7.23555C15.4652 7.25906 15.4715 7.35286 15.4292 7.43195C15.3587 7.56376 15.3364 7.56314 15.3272 7.4113C15.3111 7.18792 15.3158 7.17913 15.4213 7.23555ZM16.7847 4.68724C16.8286 4.71074 16.8632 4.75183 16.8538 4.7694C16.8397 4.79576 16.7722 4.81619 16.7142 4.81904C16.6474 4.8172 16.6216 4.78082 16.6451 4.73688C16.6733 4.68416 16.732 4.65903 16.7847 4.68724ZM16.8294 5.00504C16.8787 4.99748 16.8721 5.07309 16.8163 5.15627C16.6718 5.38412 16.5733 5.39923 16.6639 5.18772C16.7068 5.08636 16.7849 5.0038 16.8294 5.00504ZM10.3277 17.6216C10.3717 17.6451 10.3739 17.7254 10.3363 17.7957C10.294 17.8748 10.2272 17.8729 10.1622 17.8043C10.0586 17.681 10.1783 17.5416 10.3277 17.6216ZM17.5321 4.74803C17.576 4.77153 17.6046 4.86596 17.5887 4.95915C17.5668 5.10568 17.5533 5.10976 17.4908 4.95198C17.4072 4.74903 17.4178 4.68691 17.5321 4.74803ZM13.2205 13.4614C13.2503 13.5112 13.2566 13.6051 13.2331 13.649C13.2049 13.7017 13.1563 13.687 13.1264 13.6371C13.0878 13.5826 13.0903 13.4934 13.1138 13.4495C13.142 13.3968 13.1818 13.4068 13.2205 13.4614ZM14.725 10.6494C14.783 10.6466 14.8081 10.7052 14.7705 10.7755C14.7329 10.8458 14.642 10.9102 14.5839 10.9131C14.5171 10.9112 14.5007 10.8573 14.5384 10.787C14.576 10.7167 14.6581 10.6476 14.725 10.6494ZM14.5794 11.2384C14.598 11.3727 14.5777 11.6218 14.5147 11.8029C14.4565 11.9752 14.4616 12.1135 14.5196 12.1107C14.5776 12.1078 14.5705 12.2057 14.5047 12.3287C14.3542 12.6099 14.1531 12.6266 14.2097 12.3518C14.2351 12.241 14.2159 12.129 14.172 12.1055C14.128 12.082 14.1722 11.9361 14.2791 11.7785C14.3725 11.6251 14.4678 11.4048 14.4796 11.2981C14.5193 10.9915 14.5375 10.9787 14.5794 11.2384ZM12.879 14.522C12.9459 14.5239 12.9359 14.5637 12.8719 14.6199C12.7257 14.7452 12.6501 14.7386 12.7159 14.6156C12.7442 14.5629 12.8122 14.5202 12.879 14.522ZM13.7598 13.4674C13.7949 13.4862 13.7878 13.5841 13.7408 13.6719C13.689 13.7686 13.6257 13.8025 13.5999 13.7661C13.5789 13.721 13.5861 13.6231 13.6237 13.5528C13.6613 13.4825 13.7247 13.4486 13.7598 13.4674ZM15.0218 11.3621C15.0641 11.283 15.1181 11.2667 15.1479 11.3166C15.1731 11.3752 15.1079 11.476 14.9893 11.5708C14.8438 11.6738 14.7676 11.6895 14.7612 11.5957C14.759 11.5154 14.8007 11.4586 14.8493 11.4733C14.9115 11.4839 14.9842 11.4324 15.0218 11.3621ZM11.3904 18.2127C11.4204 18.0932 11.4967 18.0775 11.6595 18.1533C11.8535 18.2345 11.8657 18.2749 11.7384 18.365C11.6387 18.4247 11.591 18.5348 11.6137 18.6826C11.6549 18.9646 11.8178 19.0405 11.9401 18.812C11.9918 18.7153 12.0551 18.6814 12.0938 18.736C12.1236 18.7859 12.1553 18.7689 12.1665 18.6845C12.1778 18.6001 12.2411 18.5662 12.3114 18.6038C12.4608 18.6837 12.2206 18.9847 11.9973 19.0009C11.9169 19.0031 11.8348 19.0722 11.8282 19.1478C11.817 19.2322 11.7038 19.2959 11.5654 19.301C11.2711 19.3018 11.2588 19.2613 11.397 18.9397C11.4641 18.7721 11.4531 18.6871 11.3464 18.6752C11.262 18.664 11.1882 18.5906 11.186 18.5103C11.175 18.4253 11.2166 18.3684 11.2612 18.3697C11.3145 18.3756 11.3744 18.3059 11.3904 18.2127ZM14.0768 13.1284C14.1436 13.1302 14.1336 13.1701 14.0696 13.2263C13.9235 13.3515 13.8479 13.345 13.9137 13.2219C13.9419 13.1692 14.01 13.1265 14.0768 13.1284ZM14.2778 12.7951C14.2988 12.8402 14.3057 12.9118 14.2775 12.9645C14.254 13.0084 14.2001 13.0248 14.1649 13.006C14.121 12.9825 14.1187 12.9021 14.1564 12.8318C14.194 12.7615 14.2479 12.7452 14.2778 12.7951ZM12.1103 17.332C12.1477 17.4311 12.1622 17.5519 12.1339 17.6046C12.1057 17.6573 12.063 17.5893 12.0445 17.455C11.995 17.146 12.0185 17.1021 12.1103 17.332ZM14.5995 12.4473C14.6258 12.4614 14.651 12.52 14.6491 12.5869C14.652 12.6449 14.6109 12.6794 14.5669 12.6559C14.5142 12.6277 14.4938 12.5603 14.5173 12.5163C14.5455 12.4636 14.5819 12.4379 14.5995 12.4473ZM12.6789 16.4382C12.7059 16.43 12.6577 16.5624 12.5683 16.7294C12.479 16.8963 12.3686 17.0181 12.3247 16.9946C12.2456 16.9523 12.5575 16.4749 12.6789 16.4382ZM13.2255 15.3743C13.3194 15.3679 13.2993 15.4477 13.1648 15.6357C13.0397 15.8061 13.005 15.9344 13.07 16.0031C13.1174 16.0624 13.1231 16.1785 13.076 16.2663C13.029 16.3542 13.0294 16.5013 13.0668 16.6005C13.1545 16.8169 13.078 17.0021 12.9803 16.8255C12.9376 16.7574 12.9241 16.7615 12.9217 16.8506C12.9425 17.0652 13.163 16.991 13.2413 16.7391C13.2996 16.5668 13.3542 16.5282 13.4772 16.594C13.5738 16.6457 13.6724 16.6306 13.71 16.5603C13.7429 16.4988 13.8608 16.4262 13.9775 16.3983C14.103 16.375 14.2087 16.262 14.2763 16.0721C14.3387 15.9133 14.4697 15.6896 14.5889 15.5725C14.708 15.4554 14.7416 15.3716 14.6747 15.3697C14.5317 15.3836 14.6257 15.2079 14.8528 15.0581C15.0798 14.9083 15.1765 14.96 15.2664 15.2568C15.3358 15.4861 15.3406 15.4773 15.4054 15.2294C15.4407 15.0788 15.5154 14.9605 15.5646 14.9529C15.6139 14.9454 15.7161 14.7966 15.7878 14.6203C15.8643 14.4351 15.8774 14.2839 15.8281 14.2914C15.7789 14.299 15.7638 14.2005 15.7891 14.0897C15.8225 13.9569 15.8668 13.9655 15.9221 14.1157C15.9677 14.2418 16.0672 14.3515 16.13 14.3399C16.1968 14.3418 16.2313 14.3828 16.2078 14.4268C16.1796 14.4795 16.2 14.5469 16.244 14.5704C16.2967 14.5987 16.4124 14.4458 16.5124 14.2167C16.7029 13.7761 16.9365 13.5507 16.8974 13.835C16.8903 13.9329 16.8157 14.0512 16.7423 14.125C16.6554 14.2028 16.6501 14.2339 16.7439 14.2276C16.8377 14.2213 16.8412 14.257 16.759 14.3261C16.6903 14.3911 16.675 14.462 16.7365 14.4949C16.7892 14.5231 16.788 14.5677 16.7334 14.6063C16.6836 14.6361 16.6952 14.6988 16.7655 14.7365C16.8446 14.7788 16.8826 14.8556 16.8544 14.9083C16.8309 14.9523 16.8654 14.9934 16.9457 14.9911C17.0307 14.9801 17.0301 15.0024 16.9439 15.058C16.8758 15.1007 16.847 15.1757 16.8721 15.2343C16.9575 15.3704 16.7198 16.0683 16.6231 16.0166C16.5704 15.9884 16.5418 15.894 16.5577 15.8008C16.5649 15.7029 16.5445 15.6355 16.4952 15.643C16.45 15.6641 16.4341 15.7572 16.4533 15.8692C16.4888 16.0352 16.4377 16.1096 16.1778 16.3209C15.7265 16.6785 15.6296 16.7962 15.2406 17.4809C15.0255 17.8406 14.8867 18.1845 14.8824 18.3405C14.8857 18.5457 14.8669 18.5808 14.7884 18.5162C14.6098 18.3642 14.4037 19.0451 14.5375 19.3653C14.5953 19.5319 14.6356 19.6891 14.6121 19.733C14.5933 19.7682 14.5506 19.7001 14.5091 19.5875C14.4321 19.3089 14.2667 19.3222 14.2054 19.6059C14.1653 19.7653 14.1336 19.7822 14.0699 19.669C13.9804 19.5194 13.9459 19.4783 13.7444 19.3479C13.6741 19.3103 13.6502 19.2071 13.6878 19.1368C13.7724 18.9786 13.5094 18.8153 13.2625 18.8753C13.1054 18.9156 13.1101 18.9068 13.2725 18.8355C13.4262 18.7595 13.4363 18.7196 13.3292 18.5606C13.2438 18.4245 13.1823 18.3916 13.1089 18.4653C13.0543 18.504 13.0421 18.4635 13.0891 18.3756C13.132 18.2743 13.1339 18.2074 13.0887 18.2285C13.0482 18.2407 12.8972 18.0582 12.7609 17.827C12.6381 17.5918 12.4702 17.3776 12.4087 17.3447C12.3296 17.3024 12.3449 17.2315 12.4459 17.1273C12.8444 16.7415 12.9103 16.6184 12.8502 16.3715C12.8181 16.2414 12.8353 16.1036 12.8899 16.065C12.9486 16.0399 12.9727 15.9737 12.9428 15.9238C12.8703 15.8059 13.0825 15.3882 13.2255 15.3743ZM15.1979 12.0893C15.2418 12.1128 15.2083 12.1966 15.1349 12.2703C15.0522 12.3617 14.9583 12.368 14.9022 12.304C14.8243 12.2172 14.839 12.1685 14.9651 12.123C15.0555 12.0809 15.1628 12.0705 15.1979 12.0893ZM13.7061 14.6028C13.6855 14.7048 13.7194 14.7682 13.7997 14.7659C13.88 14.7637 13.8612 14.7988 13.7439 14.8491C13.6313 14.8906 13.5526 14.9954 13.5595 15.0669C13.5571 15.156 13.5436 15.1601 13.5009 15.0921C13.4582 15.024 13.5076 14.847 13.5876 14.6976C13.681 14.5442 13.7268 14.5009 13.7061 14.6028ZM14.3455 13.4078C14.3302 13.4787 14.2738 13.5841 14.228 13.6275C14.1687 13.6749 14.1747 13.6215 14.2405 13.4985C14.3063 13.3755 14.3474 13.3409 14.3455 13.4078ZM17.8721 6.96445C17.8984 6.97855 17.9236 7.03721 17.9217 7.10404C17.9246 7.16208 17.8835 7.19661 17.8396 7.1731C17.7868 7.14489 17.7664 7.07745 17.7899 7.03351C17.8181 6.98079 17.8545 6.95504 17.8721 6.96445ZM12.0443 18.427C12.1674 18.4928 12.0523 18.6234 11.8923 18.6056C11.7856 18.5937 11.7733 18.5533 11.8555 18.4842C11.9148 18.4368 12.0004 18.4035 12.0443 18.427ZM14.4311 13.8605C14.4434 13.9009 14.4098 13.9847 14.3506 14.0321C14.2866 14.0883 14.2743 14.0478 14.326 13.9512C14.369 13.8498 14.4235 13.8112 14.4311 13.8605ZM13.9805 14.9983C14.0104 15.0482 14.012 15.1508 13.9838 15.2035C13.9509 15.265 13.9204 15.2374 13.91 15.1301C13.8939 14.9068 13.9127 14.8716 13.9805 14.9983ZM14.1799 14.5624C14.1645 14.6333 14.1081 14.7388 14.0623 14.7821C14.003 14.8295 14.009 14.7762 14.0748 14.6532C14.1406 14.5301 14.1817 14.4956 14.1799 14.5624ZM11.6941 19.4829C11.7986 19.4145 11.9234 19.4135 11.9796 19.4774C12.0616 19.5778 12.0475 19.6042 11.8586 19.6614C11.7325 19.7069 11.6732 19.7543 11.7207 19.8136C11.764 19.8594 11.7439 19.9391 11.68 19.9953C11.5884 20.0819 11.5532 20.0631 11.5271 19.8796C11.4899 19.611 11.4805 19.6286 11.6941 19.4829ZM14.5985 14.0969C14.6195 14.1421 14.664 14.1433 14.6923 14.0906C14.7158 14.0467 14.7135 13.9664 14.6884 13.9077C14.6498 13.8531 14.7269 13.6457 14.8485 13.4395C14.9701 13.2333 15.0987 13.0987 15.1238 13.1573C15.1536 13.2072 15.1947 13.1726 15.2019 13.0748C15.2178 12.9816 15.2736 12.8984 15.3405 12.9002C15.412 12.8933 15.3443 13.0831 15.1575 13.3901C14.9983 13.6666 14.8654 13.9572 14.8723 14.0287C14.8793 14.1002 14.8194 14.1699 14.7525 14.1681C14.681 14.175 14.5496 14.2516 14.4492 14.3336C14.2896 14.4629 14.2808 14.4582 14.4159 14.2479C14.4952 14.1208 14.5727 14.0606 14.5985 14.0969ZM12.4553 18.8842C12.5685 18.8205 12.5855 18.8521 12.5582 19.0297C12.5329 19.1405 12.5562 19.266 12.6089 19.2942C12.6616 19.3224 12.6369 19.4109 12.5588 19.4935C12.4807 19.576 12.4378 19.6774 12.4676 19.7272C12.5015 19.7906 12.4886 20.7444 12.4462 20.8235C12.3898 20.9289 12.0995 20.6266 12.1471 20.5165C12.1759 20.4415 12.2282 20.3225 12.2571 20.2475C12.3429 20.0448 12.1461 19.9056 12.0386 20.0854C11.9869 20.1821 11.9511 20.1856 11.9624 20.1012C11.9689 20.0256 12.047 19.943 12.1239 19.905C12.223 19.8676 12.27 19.7797 12.2684 19.6771C12.258 19.5698 12.3273 19.4826 12.4311 19.4364C12.5754 19.378 12.5713 19.3645 12.4464 19.3655C12.3526 19.3718 12.2829 19.3119 12.2766 19.2181C12.2599 19.017 12.2787 18.9819 12.4553 18.8842ZM13.9925 16.1802C14.1942 16.1412 14.1982 16.1547 14.0135 16.2254C13.905 16.2803 13.7971 16.313 13.7795 16.3036C13.7092 16.266 13.7907 16.2192 13.9925 16.1802ZM15.185 14.3316C15.3446 14.2023 15.4672 14.1209 15.4531 14.1473C15.366 14.3946 15.1767 14.7906 15.2209 14.6447C15.2657 14.4765 15.2346 14.4712 15.0157 14.648C14.8655 14.7597 14.7845 14.7842 14.8269 14.7052C14.8604 14.6214 15.03 14.4522 15.185 14.3316ZM12.8347 19.675C13.0198 19.7514 13.0255 19.8675 12.8549 19.9118C12.8097 19.9329 12.74 19.873 12.6979 19.7827C12.6191 19.5709 12.6144 19.5797 12.8347 19.675ZM18.7129 8.6463C18.7261 8.81164 18.7024 9.02499 18.6507 9.12165C18.5848 9.24467 18.6087 9.34789 18.7312 9.43599C18.9192 9.57048 19.0552 9.97106 18.8883 9.88173C18.8355 9.85352 18.7887 9.77197 18.7859 9.71393C18.7796 9.62012 18.7134 9.596 18.5744 9.62337C18.4219 9.65483 18.4043 9.64542 18.5041 9.58576C18.5721 9.54305 18.5834 9.45865 18.5184 9.38997C18.4493 9.30781 18.4659 9.19234 18.5493 9.07872C18.6368 8.97859 18.6681 8.81449 18.6307 8.71537C18.5886 8.62503 18.5876 8.50016 18.6246 8.45214C18.6528 8.39941 18.6949 8.48975 18.7129 8.6463ZM16.081 13.6921C16.1074 13.7062 16.1325 13.7648 16.1306 13.8316C16.1335 13.8897 16.0924 13.9242 16.0485 13.9007C15.9957 13.8725 15.9753 13.8051 15.9988 13.7611C16.027 13.7084 16.0634 13.6826 16.081 13.6921ZM12.8068 20.3608C12.8366 20.4107 12.8242 20.5396 12.7771 20.6275C12.6408 20.8824 12.7842 21.0156 13.0775 20.89L13.3438 20.7725L13.3019 20.9987C13.2588 21.2695 13.0816 21.3894 12.9833 21.2351C12.9406 21.1671 12.951 21.2744 12.9994 21.4585C13.0478 21.6427 13.0335 21.8384 12.9695 21.8946C12.9055 21.9508 12.8755 22.0704 12.9 22.1513C12.9327 22.2592 12.9186 22.2856 12.8395 22.2433C12.7428 22.1916 12.7647 22.045 12.8851 21.8834C12.9726 21.7832 12.8378 21.3381 12.7217 21.3438C12.6636 21.3467 12.6783 21.298 12.7423 21.2418C12.8932 21.1078 12.7795 21.0244 12.5414 21.0892C12.4019 21.1388 12.3978 21.1253 12.5028 21.0346C12.585 20.9655 12.6144 20.8682 12.5805 20.8049C12.5419 20.7503 12.5638 20.6038 12.6296 20.4808C12.6954 20.3577 12.7682 20.3063 12.8068 20.3608ZM18.901 9.09736C18.9186 9.10677 18.9033 9.17768 18.8656 9.24798C18.828 9.31828 18.76 9.36098 18.7072 9.33277C18.6633 9.30927 18.6786 9.23835 18.7426 9.18216C18.8154 9.13067 18.8834 9.08796 18.901 9.09736ZM13.0674 20.1273C13.1107 20.173 13.1346 20.2763 13.1152 20.3337C13.0911 20.3999 13.0776 20.404 13.0794 20.3372C13.0854 20.2838 13.038 20.2245 12.9752 20.2362C12.9172 20.239 12.8961 20.1939 12.9243 20.1411C12.9573 20.0796 13.0153 20.0768 13.0674 20.1273ZM12.6879 21.597C12.7231 21.6158 12.7159 21.7137 12.6642 21.8104C12.5607 22.0037 12.4318 21.9912 12.4643 21.7826C12.4862 21.636 12.6 21.55 12.6879 21.597ZM17.3183 12.9638C17.3506 12.9246 17.3946 12.9481 17.4285 13.0115C17.4753 13.093 17.4565 13.1282 17.3539 13.1298C17.2513 13.1314 17.2325 13.1666 17.2793 13.2481C17.3728 13.4112 17.28 13.5424 17.1589 13.4097C17.1027 13.3458 17.1058 13.2344 17.1656 13.1647C17.2255 13.095 17.2995 12.999 17.3183 12.9638ZM13.4023 20.4308C13.4146 20.4713 13.3811 20.555 13.3218 20.6025C13.2578 20.6586 13.2456 20.6182 13.2973 20.5215C13.3402 20.4202 13.3948 20.3815 13.4023 20.4308ZM17.7923 12.268C17.8739 12.2212 17.9119 12.2981 17.8794 12.5067C17.8503 12.7512 17.8086 12.808 17.7295 12.7656C17.5099 12.6481 17.5477 12.4084 17.7923 12.268ZM13.5429 20.992C13.6031 21.0695 13.6747 21.0625 13.717 20.9834C13.7593 20.9044 13.8368 20.8441 13.886 20.8365C13.9306 20.8378 13.8823 20.9702 13.7619 21.1318C13.6503 21.2982 13.5635 21.376 13.5788 21.3051C13.5806 21.2383 13.5386 21.1479 13.4683 21.1103C13.398 21.0727 13.364 21.0094 13.3922 20.9566C13.4158 20.9127 13.4867 20.928 13.5429 20.992ZM18.334 11.8683C18.3045 11.9656 18.2293 12.1062 18.1694 12.1759C18.096 12.2497 18.1161 12.17 18.2054 12.003C18.2947 11.836 18.3499 11.7751 18.334 11.8683ZM14.7847 18.6499C14.8111 18.664 14.8362 18.7226 14.8343 18.7895C14.8372 18.8475 14.7961 18.882 14.7522 18.8585C14.6994 18.8303 14.679 18.7629 14.7025 18.7189C14.7307 18.6662 14.7671 18.6405 14.7847 18.6499ZM17.1177 14.4163C17.1563 14.4708 17.2243 14.4281 17.2942 14.3186C17.3977 14.1253 17.4065 14.13 17.3874 14.3345C17.3606 14.6593 17.333 14.6897 17.1761 14.5605C16.9975 14.4085 17.0016 14.422 17.0345 14.3605C17.0486 14.3341 17.079 14.3617 17.1177 14.4163ZM13.144 22.0332C13.1332 21.7788 13.3711 21.8834 13.4299 22.1749C13.4724 22.4124 13.2312 22.5885 12.9839 22.5014C12.8603 22.4579 12.8615 22.4133 12.9842 22.332C13.0839 22.2723 13.1362 22.1534 13.144 22.0332ZM16.1029 16.6086C16.2096 16.6205 16.2219 16.6609 16.1397 16.73C16.0164 16.8336 15.8482 16.7888 15.9141 16.6658C15.9376 16.6219 16.0273 16.6021 16.1029 16.6086ZM18.1458 12.7058C18.1757 12.7557 18.229 12.7616 18.2525 12.7177C18.2807 12.665 18.3394 12.6398 18.3921 12.668C18.5591 12.7574 18.3577 12.9435 18.1773 12.8583C18.0759 12.8153 18.0157 12.7379 18.0392 12.6939C18.0674 12.6412 18.1072 12.6512 18.1458 12.7058ZM17.599 13.9391C17.6429 13.9626 17.6775 14.0037 17.6681 14.0213C17.654 14.0476 17.5865 14.0681 17.5285 14.0709C17.4617 14.0691 17.4359 14.0327 17.4594 13.9888C17.4876 13.936 17.5463 13.9109 17.599 13.9391ZM15.616 17.7722C15.6282 17.8127 15.5947 17.8965 15.5354 17.9439C15.4715 18.0001 15.4592 17.9596 15.5109 17.8629C15.5538 17.7616 15.6084 17.723 15.616 17.7722ZM17.9277 13.6628C17.998 13.7005 17.9526 13.8909 17.8676 13.902C17.8095 13.9048 17.7932 13.8509 17.8308 13.7806C17.8684 13.7103 17.9189 13.6581 17.9277 13.6628ZM18.0847 13.306C18.0841 13.3283 18.1073 13.4538 18.1218 13.5746C18.1568 13.7628 18.1474 13.7804 18.0438 13.6571C17.9788 13.5885 17.9643 13.4677 18.0066 13.3886C18.0442 13.3183 18.0765 13.2791 18.0847 13.306ZM13.3869 22.7622C13.523 22.6768 13.6269 22.6306 13.6128 22.657C13.6074 22.6881 13.5821 22.7988 13.5479 22.9049C13.5226 23.0157 13.4555 23.1832 13.4085 23.2711C13.3568 23.3678 13.3525 23.5237 13.4034 23.6187C13.4496 23.7226 13.4377 23.8292 13.3743 23.8632C13.2065 23.9655 13.0753 23.8727 13.208 23.7516C13.2767 23.6866 13.2628 23.5435 13.178 23.3851C13.0084 23.0683 13.0466 22.9758 13.3869 22.7622ZM16.9715 16.3161C17.1256 16.3872 17.1303 16.3784 17.0414 16.2065C16.966 16.0305 16.9754 16.013 17.2123 15.9928C17.4357 15.9767 17.4398 15.9901 17.2908 16.0574C17.1647 16.1029 17.1271 16.1732 17.1557 16.2676C17.1883 16.3755 17.1338 16.4142 16.9643 16.4139C16.8037 16.4184 16.7422 16.3855 16.7751 16.324C16.7986 16.2801 16.8924 16.2737 16.9715 16.3161ZM17.1921 15.7559C17.236 15.7794 17.2706 15.8205 17.2612 15.8381C17.2471 15.8644 17.1796 15.8849 17.1216 15.8877C17.0547 15.8859 17.029 15.8495 17.0525 15.8055C17.0807 15.7528 17.1394 15.7277 17.1921 15.7559ZM15.4922 19.1866C15.5549 19.175 15.512 19.2764 15.4145 19.4163C15.317 19.5563 15.2458 19.7104 15.2581 19.7509C15.2949 19.8723 15.1761 20.1365 15.0629 20.2003C14.9995 20.2342 15.0073 20.114 15.0702 19.9329C15.2344 19.4782 15.3795 19.2281 15.4922 19.1866ZM16.5774 17.3485C16.6125 17.3673 16.5972 17.4382 16.5332 17.4944C16.4604 17.5459 16.4539 17.6215 16.5066 17.6497C16.5593 17.6779 16.5798 17.7454 16.5563 17.7893C16.5234 17.8508 16.4706 17.8226 16.3805 17.6953C16.2694 17.5228 16.4104 17.2591 16.5774 17.3485ZM18.2033 14.0138C18.1927 14.0759 18.2354 14.144 18.2981 14.1323C18.3562 14.1295 18.3819 14.1659 18.3537 14.2186C18.2926 14.3328 18.1185 14.3414 18.077 14.2288C18.0647 14.1883 18.0854 14.0863 18.1365 14.0119C18.1882 13.9153 18.2105 13.9159 18.2033 14.0138ZM14.8703 20.3911C14.8879 20.4005 14.9206 20.5084 14.9398 20.6204C14.9788 20.8221 14.9653 20.8262 14.8858 20.6368C14.8063 20.4473 14.8 20.3535 14.8703 20.3911ZM15.9674 18.4463C16.0301 18.4346 16.0148 18.5055 15.9367 18.5881C15.7759 18.762 15.7002 18.7554 15.7943 18.5797C15.8319 18.5094 15.9094 18.4491 15.9674 18.4463ZM18.8605 13.1447C18.9571 13.1964 18.903 13.3822 18.7957 13.3926C18.7376 13.3954 18.7125 13.3368 18.7501 13.2665C18.7924 13.1874 18.8429 13.1353 18.8605 13.1447ZM16.6445 17.9835C16.6643 18.0732 16.3404 18.3407 16.2936 18.2591C16.2638 18.2092 16.3331 18.122 16.4328 18.0623C16.546 17.9986 16.6317 17.9653 16.6445 17.9835ZM18.7537 13.6188C18.8118 13.616 18.8046 13.7138 18.7435 13.8281C18.6912 13.947 18.6272 14.0032 18.5974 13.9533C18.5289 13.8489 18.6377 13.6245 18.7537 13.6188ZM15.6652 20.0252C15.6539 20.1096 15.6684 20.2304 15.707 20.2849C15.7409 20.3483 15.6851 20.4315 15.5631 20.4905C15.4088 20.5888 15.3912 20.5794 15.501 20.4799C15.5744 20.4061 15.6038 20.3088 15.574 20.259C15.5401 20.1956 15.5519 20.0889 15.603 20.0145C15.6688 19.8915 15.6864 19.9009 15.6652 20.0252ZM16.0862 19.4706C16.2691 19.4667 16.2726 19.5025 16.1246 19.6946C16.0318 19.8258 15.95 20.042 15.9504 20.1891C15.939 20.4429 15.9302 20.4382 15.8918 20.2143C15.8644 20.0753 15.8828 19.893 15.9345 19.7963C15.9815 19.7085 15.9611 19.641 15.9031 19.6439C15.8363 19.642 15.8058 19.6144 15.834 19.5617C15.8622 19.509 15.9748 19.4675 16.0862 19.4706ZM16.3053 19.1244C16.3493 19.1479 16.3656 19.2019 16.3374 19.2546C16.3139 19.2985 16.2289 19.3096 16.1498 19.2672C16.0795 19.2296 16.0679 19.1669 16.1177 19.1371C16.1723 19.0984 16.2526 19.0962 16.3053 19.1244ZM20.0494 12.2323C20.0657 12.2863 19.9975 12.4984 19.9069 12.7099C19.7787 12.9917 19.7329 13.035 19.746 12.8838C19.7663 12.6347 20.0126 12.1109 20.0494 12.2323ZM15.811 20.5553C15.8286 20.5647 15.7703 20.737 15.6892 20.931C15.5751 21.1864 15.5152 21.2561 15.4731 21.1657C15.4316 21.0531 15.7319 20.513 15.811 20.5553ZM17.1415 18.0685C17.2065 18.1372 17.2269 18.2047 17.1912 18.2081C17.1507 18.2204 17.1027 18.1834 17.0688 18.12C16.9705 17.9657 17.0251 17.9271 17.1415 18.0685ZM17.4085 17.4428C17.4224 17.5858 17.4576 17.6047 17.6188 17.5779C17.7308 17.5587 17.813 17.4896 17.8101 17.4316C17.8073 17.3736 17.8524 17.3525 17.8964 17.376C18.037 17.4512 17.9448 17.5602 17.6562 17.677C17.458 17.7518 17.3782 17.7318 17.3456 17.6239C17.317 17.5294 17.32 17.418 17.3482 17.3653C17.3718 17.3214 17.4022 17.349 17.4085 17.4428ZM19.6458 13.2823C19.7127 13.2842 19.7027 13.324 19.6387 13.3802C19.4925 13.5055 19.4169 13.4989 19.4827 13.3759C19.511 13.3232 19.579 13.2805 19.6458 13.2823ZM16.3629 19.9464C16.4254 20.1042 16.4571 20.0872 16.5605 19.8939C16.6263 19.7709 16.7091 19.6795 16.7443 19.6983C16.7882 19.7218 16.7205 19.9117 16.6077 20.1226C16.3914 20.5268 16.2402 20.5137 16.2566 20.0817C16.2746 19.7522 16.2793 19.7434 16.3629 19.9464ZM16.6801 19.438C16.7241 19.4615 16.6993 19.55 16.6212 19.6325C16.5432 19.7151 16.4657 19.7753 16.4481 19.7659C16.4305 19.7565 16.4553 19.668 16.507 19.5714C16.5587 19.4747 16.6362 19.4144 16.6801 19.438ZM20.4029 12.6701C20.4152 12.7106 20.3512 12.7668 20.2568 12.7954C20.1266 12.8274 20.1225 12.814 20.241 12.7191C20.3144 12.6454 20.3906 12.6297 20.4029 12.6701ZM16.1273 20.7246C16.1537 20.7387 16.1189 20.867 16.0349 21.0029C15.9509 21.1388 15.8728 21.2214 15.8471 21.185C15.7962 21.09 16.0483 20.6823 16.1273 20.7246ZM17.3702 18.5073C17.412 18.7671 17.1375 19.3436 17.0145 19.2778C16.9705 19.2543 16.9953 19.1658 17.0734 19.0832C17.1514 19.0007 17.1762 18.9122 17.141 18.8934C17.0971 18.8699 17.119 18.7233 17.2036 18.5652C17.3312 18.3056 17.3447 18.3015 17.3702 18.5073ZM15.9294 21.4325C16.1246 21.4691 15.9525 21.7274 15.7526 21.6996C15.6372 21.683 15.6249 21.6426 15.6989 21.5465C15.7588 21.4768 15.8626 21.4307 15.9294 21.4325ZM17.0324 19.4343C17.1426 19.4819 17.1894 19.5635 17.1471 19.6426C17.0907 19.748 17.0555 19.7292 16.9525 19.5837C16.8841 19.4793 16.8332 19.3842 16.8379 19.3754C16.8473 19.3579 16.9311 19.3914 17.0324 19.4343ZM17.8744 18.0085C17.8591 18.0795 17.8027 18.1849 17.7569 18.2282C17.6976 18.2756 17.7035 18.2223 17.7694 18.0993C17.8352 17.9762 17.8763 17.9417 17.8744 18.0085ZM20.4365 13.3889C20.5015 13.4576 20.5219 13.525 20.4862 13.5285C20.4457 13.5407 20.3977 13.5037 20.3638 13.4404C20.2655 13.2861 20.3201 13.2475 20.4365 13.3889ZM15.8465 22.4958C15.8905 22.5193 15.9156 22.578 15.8874 22.6307C15.8639 22.6746 15.7964 22.6951 15.7525 22.6716C15.6998 22.6434 15.6881 22.5806 15.7116 22.5367C15.7399 22.484 15.7938 22.4676 15.8465 22.4958ZM16.682 21.1457C16.6977 21.2219 16.6454 21.3408 16.5726 21.3923C16.4763 21.4878 16.4547 21.4649 16.4859 21.3008C16.515 21.0563 16.6699 20.9358 16.682 21.1457ZM16.8339 20.6505C16.8778 20.674 16.9123 20.7151 16.9029 20.7327C16.8888 20.759 16.8214 20.7794 16.7633 20.7823C16.6965 20.7805 16.6708 20.7441 16.6943 20.7001C16.7225 20.6474 16.7811 20.6223 16.8339 20.6505ZM14.9677 24.2862C15.0117 24.3097 14.9763 24.4603 14.9005 24.6232C14.787 24.8564 14.7688 24.8692 14.7825 24.6957C14.8081 24.4155 14.8887 24.2439 14.9677 24.2862ZM15.1586 23.9927C15.2167 23.9899 15.2559 24.0222 15.2277 24.0749C15.2042 24.1188 15.1227 24.1656 15.0646 24.1685C14.9978 24.1666 14.9673 24.139 14.9956 24.0863C15.0191 24.0424 15.0918 23.9909 15.1586 23.9927ZM16.4111 21.5885C16.4187 21.6378 16.5072 21.6625 16.6104 21.6386C16.7446 21.62 16.7487 21.6335 16.6437 21.7242C16.575 21.7892 16.4894 21.8225 16.4542 21.8037C16.3751 21.7614 16.3214 21.6083 16.3543 21.5468C16.3684 21.5204 16.3901 21.5433 16.4111 21.5885ZM17.2858 20.2706C17.2962 20.3779 17.2579 20.4705 17.2175 20.4828C17.1723 20.5038 17.1601 20.4633 17.193 20.4018C17.2259 20.3403 17.2001 20.3039 17.1333 20.3021C17.0618 20.309 17.0765 20.2604 17.1587 20.1913C17.2819 20.0877 17.2907 20.0924 17.2858 20.2706ZM14.1662 26.1857C14.2506 26.197 14.281 26.2245 14.2265 26.2632C14.1719 26.3018 14.0916 26.304 14.0388 26.2758C13.9158 26.21 13.9751 26.1626 14.1662 26.1857ZM18.5611 17.8447C18.5674 17.9385 18.5597 18.0587 18.5314 18.1114C18.5079 18.1554 18.4734 18.1143 18.4671 18.0205C18.4608 17.9267 18.4732 17.7977 18.4967 17.7538C18.525 17.701 18.5548 17.7509 18.5611 17.8447ZM16.5618 22.4264C16.72 22.5111 16.5692 22.6451 16.3241 22.6383C16.1055 22.6457 16.1014 22.6322 16.2874 22.5169C16.3965 22.4397 16.5179 22.4029 16.5618 22.4264ZM15.2511 25.0029C15.2687 25.0124 15.2088 25.082 15.1043 25.1505C14.9999 25.2189 14.8961 25.2651 14.8697 25.251C14.8522 25.2416 14.912 25.1719 15.0165 25.1035C15.1209 25.035 15.2247 24.9888 15.2511 25.0029ZM16.4036 22.8278C16.4739 22.8654 16.4902 22.9194 16.4404 22.9492C16.3905 22.979 16.3243 22.9549 16.2945 22.905C16.2225 22.7648 16.2542 22.7479 16.4036 22.8278ZM16.8204 21.9431C16.8872 21.945 16.8772 21.9848 16.8133 22.041C16.6671 22.1663 16.5915 22.1597 16.6573 22.0367C16.6855 21.984 16.7536 21.9413 16.8204 21.9431ZM15.7063 24.3423C15.7766 24.3799 15.8146 24.4567 15.7864 24.5095C15.7629 24.5534 15.7136 24.561 15.6838 24.5111C15.6587 24.4524 15.5784 24.4547 15.5326 24.498C15.4686 24.5542 15.4516 24.5225 15.5034 24.4258C15.5369 24.3421 15.636 24.3047 15.7063 24.3423ZM15.8474 24.0787C15.9998 24.0472 16.0262 24.0613 15.9698 24.1668C15.9322 24.2371 15.8377 24.2657 15.7674 24.228C15.6971 24.1904 15.6403 24.1487 15.645 24.1399C15.6544 24.1224 15.7442 24.1026 15.8474 24.0787ZM17.8844 20.2292C17.9547 20.2668 17.9839 20.339 17.9645 20.3964C17.9363 20.4491 17.8827 20.6126 17.8297 20.7538C17.7668 20.9349 17.7122 20.9735 17.6519 20.896C17.5957 20.8321 17.5841 20.7693 17.6205 20.7436C17.6521 20.7266 17.691 20.6118 17.6988 20.4916C17.7338 20.1938 17.7526 20.1587 17.8844 20.2292ZM18.2482 19.4858C18.3884 19.4138 18.3972 19.4185 18.3361 19.5328C18.2985 19.6031 18.1887 19.7026 18.1072 19.7494C17.967 19.8213 17.9582 19.8166 18.0193 19.7024C18.0569 19.6321 18.1667 19.5326 18.2482 19.4858ZM17.5061 21.6544C17.4331 21.8754 17.5531 22.0525 17.6518 21.868C17.6753 21.8241 17.7246 21.8165 17.7585 21.8799C17.7883 21.9298 17.7149 22.0035 17.5801 22.0444C17.373 22.1145 17.3467 22.1003 17.3597 21.9491C17.3622 21.86 17.4199 21.71 17.4716 21.6134C17.5603 21.4687 17.5556 21.4775 17.5061 21.6544ZM15.3693 26.0495C15.4126 26.0953 15.3779 26.2237 15.2857 26.3326C15.0778 26.5944 14.9953 26.5163 15.1598 26.2087C15.2357 26.0458 15.3219 25.9903 15.3693 26.0495ZM16.8158 23.2405C16.7542 23.2075 16.7602 23.1542 16.8235 23.1203C16.8781 23.0817 16.9443 23.1058 16.9648 23.1732C17.0097 23.3216 16.7062 23.6565 16.6296 23.5251C16.5997 23.4753 16.6508 23.4009 16.7499 23.3635C16.8807 23.3091 16.8948 23.2828 16.8158 23.2405ZM16.9381 23.8145C17.1022 23.8458 17.1414 23.8781 17.0687 23.9296C17.0053 23.9635 16.894 23.9605 16.8237 23.9228C16.7534 23.8852 16.6771 23.901 16.6489 23.9537C16.6254 23.9976 16.5721 23.9917 16.5381 23.9283C16.4615 23.7969 16.6099 23.752 16.9381 23.8145ZM15.5659 26.3582C15.5781 26.3986 15.5142 26.4548 15.4197 26.4834C15.2895 26.5155 15.2855 26.502 15.404 26.4072C15.4774 26.3334 15.5536 26.3177 15.5659 26.3582ZM16.9967 24.2754C17.009 24.3159 16.9754 24.3997 16.9162 24.4471C16.8522 24.5033 16.8399 24.4628 16.8916 24.3661C16.9346 24.2648 16.9891 24.2261 16.9967 24.2754ZM17.6718 23.5629C17.7086 23.6843 17.6804 23.737 17.559 23.7737C17.4376 23.8105 17.4206 23.7788 17.51 23.6119C17.5993 23.4449 17.6351 23.4415 17.6718 23.5629ZM17.541 24.1032C17.5428 24.0364 17.6338 23.972 17.7546 23.9575C17.9475 23.9138 17.9516 23.9273 17.7756 24.0027C17.6266 24.0699 17.6078 24.105 17.6769 24.1872C17.7459 24.2694 17.7271 24.3045 17.5841 24.3184C17.4363 24.3411 17.4269 24.3586 17.5305 24.4819C17.5955 24.5506 17.6018 24.6444 17.5519 24.6742C17.4886 24.7081 17.4773 24.7925 17.52 24.8606C17.5668 24.9421 17.5392 24.9726 17.4238 24.956C17.3083 24.9394 17.2785 24.8896 17.3396 24.7753C17.3866 24.6875 17.3815 24.5491 17.3165 24.4804C17.2258 24.3754 17.2358 24.3355 17.3801 24.2771C17.4704 24.235 17.5438 24.1612 17.541 24.1032ZM17.5631 25.0758C17.6698 25.0876 17.6686 25.1322 17.5629 25.2452C17.4572 25.3582 17.4215 25.3617 17.4205 25.2368C17.4037 25.0357 17.3943 25.0533 17.5631 25.0758ZM16.9711 26.3301C16.9969 26.3665 17.069 26.3373 17.1377 26.2723C17.2023 26.1938 17.1593 26.2952 17.0512 26.4973C16.8497 26.8529 16.7001 26.9424 16.7426 26.6939C16.7792 26.4987 16.9331 26.2533 16.9711 26.3301ZM25.0388 15.7722C25.1091 15.8098 25.1518 15.8779 25.133 15.913C25.1095 15.9569 25.0292 15.9592 24.9589 15.9216C24.8886 15.884 24.8459 15.8159 24.8694 15.772C24.8882 15.7368 24.9685 15.7346 25.0388 15.7722ZM25.2452 17.4989C25.3155 17.5365 25.3441 17.631 25.3112 17.6925C25.2736 17.7628 25.2156 17.7656 25.1729 17.6976C25.1261 17.616 25.0938 17.6552 25.0543 17.7924C25.0331 17.9166 24.9779 17.9775 24.9527 17.9189C24.8632 17.7693 25.1046 17.4237 25.2452 17.4989ZM24.8679 18.2465C24.8526 18.3174 24.7867 18.4404 24.7268 18.5101C24.6535 18.5838 24.6641 18.5217 24.7393 18.3811C24.8193 18.2317 24.8697 18.1796 24.8679 18.2465ZM25.2378 18.2522C25.2817 18.2757 25.2881 18.3695 25.2457 18.4486C25.1752 18.5804 25.1529 18.5798 25.1438 18.428C25.1276 18.2046 25.1323 18.1958 25.2378 18.2522ZM26.8222 17.0654C26.8398 17.0748 26.8725 17.1828 26.8917 17.2948C26.9307 17.4965 26.9172 17.5006 26.8377 17.3111C26.7582 17.1216 26.7519 17.0278 26.8222 17.0654Z" fill="#171717"/>
<path fill-rule="evenodd" clip-rule="evenodd" d="M11.4882 19.1676C11.534 19.1243 11.6184 19.1356 11.6482 19.1854C11.6909 19.2535 11.7091 19.2406 11.7068 19.1603C11.6889 19.0038 11.5019 18.9941 11.4307 19.1482C11.3884 19.2273 11.4107 19.2279 11.4882 19.1676Z" fill="#171717"/>
<path fill-rule="evenodd" clip-rule="evenodd" d="M14.489 15.9487C14.5189 15.9986 14.5722 16.0045 14.5957 15.9606C14.6239 15.9078 14.6035 15.8404 14.5596 15.8169C14.5068 15.7887 14.4623 15.7874 14.4529 15.805C14.4388 15.8314 14.4504 15.8941 14.489 15.9487Z" fill="#171717"/>
<path fill-rule="evenodd" clip-rule="evenodd" d="M14.867 15.3496C14.9232 15.4136 14.9283 15.552 14.8671 15.6662C14.7966 15.798 14.8042 15.8473 14.8986 15.8187C15.0605 15.7696 15.1318 15.4461 15 15.3756C14.9561 15.3521 14.9661 15.3122 15.0207 15.2736C15.0752 15.235 15.0448 15.2074 14.9604 15.1962C14.747 15.1724 14.7376 15.19 14.867 15.3496Z" fill="#171717"/>
<path fill-rule="evenodd" clip-rule="evenodd" d="M15.5765 15.1622C15.6064 15.2121 15.6779 15.2052 15.7419 15.149C15.8193 15.0887 15.8071 15.0482 15.7004 15.0364C15.5316 15.0139 15.504 15.0443 15.5765 15.1622Z" fill="#171717"/>
<path fill-rule="evenodd" clip-rule="evenodd" d="M3.49321 14.5303C3.50362 14.6376 3.53406 14.6652 3.56697 14.6037C3.59518 14.5509 3.59356 14.4483 3.56373 14.3985C3.49589 14.2717 3.47709 14.3069 3.49321 14.5303Z" fill="#171717"/>
<path fill-rule="evenodd" clip-rule="evenodd" d="M4.61799 14.0346C4.63434 14.0886 4.68706 14.1168 4.7451 14.1139C4.86118 14.1082 4.90496 13.8151 4.79951 13.7587C4.71164 13.7117 4.58122 13.9132 4.61799 14.0346Z" fill="#171717"/>
<path fill-rule="evenodd" clip-rule="evenodd" d="M14.5271 4.40692C14.5604 4.49255 14.6301 4.55244 14.684 4.5361C14.7245 4.52384 14.721 4.48808 14.6683 4.45987C14.6156 4.43166 14.6221 4.35604 14.6861 4.29984C14.7501 4.24365 14.7855 4.09304 14.7757 3.96347C14.7467 3.7219 14.7332 3.72598 14.6015 3.97203C14.5216 4.12141 14.4897 4.30779 14.5271 4.40692Z" fill="#171717"/>
<path fill-rule="evenodd" clip-rule="evenodd" d="M7.55467 17.9462C7.5986 17.9698 7.63969 17.9352 7.63683 17.8772C7.63868 17.8104 7.61355 17.7517 7.58719 17.7376C7.56962 17.7282 7.53323 17.7539 7.50502 17.8067C7.48152 17.8506 7.50194 17.918 7.55467 17.9462Z" fill="#171717"/>
<path fill-rule="evenodd" clip-rule="evenodd" d="M7.64273 18.1644C7.70077 18.1616 7.74347 18.2296 7.73284 18.2917C7.73038 18.3808 7.75265 18.3815 7.80437 18.2848C7.92129 18.0874 7.823 17.9331 7.65867 18.0712C7.5947 18.1274 7.57998 18.176 7.64273 18.1644Z" fill="#171717"/>
<path fill-rule="evenodd" clip-rule="evenodd" d="M15.3406 4.0499C15.347 4.14371 15.4075 4.05175 15.4805 3.83083C15.5675 3.58356 15.6321 3.50509 15.6701 3.58193C15.7468 3.71335 15.8167 3.60382 15.8005 3.38044C15.7867 3.23738 15.7509 3.24085 15.6217 3.39779C15.4186 3.65077 15.3192 3.85759 15.3406 4.0499Z" fill="#171717"/>
<path fill-rule="evenodd" clip-rule="evenodd" d="M12.6228 23.6434C12.6526 23.6932 12.7335 23.6687 12.8116 23.5862C12.9772 23.4035 12.9106 23.2322 12.728 23.3832C12.5637 23.5214 12.5543 23.5389 12.6228 23.6434Z" fill="#171717"/>
<path fill-rule="evenodd" clip-rule="evenodd" d="M12.9273 24.6986C12.96 24.8065 13.1429 24.8027 13.1993 24.6972C13.2181 24.6621 13.1848 24.5764 13.1333 24.5037C13.025 24.3892 12.883 24.528 12.9273 24.6986Z" fill="#171717"/>
<path fill-rule="evenodd" clip-rule="evenodd" d="M13.9116 26.6808C13.9709 26.6334 14.0044 26.5496 13.9922 26.5092C13.9846 26.4599 13.9301 26.4985 13.8871 26.5999C13.8354 26.6965 13.8477 26.737 13.9116 26.6808Z" fill="#171717"/>
<path fill-rule="evenodd" clip-rule="evenodd" d="M18.5983 18.5982C18.7007 18.766 18.8393 18.5915 18.7686 18.4067C18.7101 18.2624 18.6838 18.2483 18.6227 18.3626C18.5803 18.4417 18.5732 18.5396 18.5983 18.5982Z" fill="#171717"/>
<path fill-rule="evenodd" clip-rule="evenodd" d="M18.554 18.9135C18.5838 18.9634 18.6371 18.9693 18.6607 18.9254C18.6889 18.8727 18.6684 18.8052 18.6245 18.7817C18.5718 18.7535 18.5272 18.7523 18.5178 18.7699C18.5037 18.7962 18.5154 18.859 18.554 18.9135Z" fill="#171717"/>
<path fill-rule="evenodd" clip-rule="evenodd" d="M18.9085 19.0151C18.97 19.048 19.0738 19.0019 19.1208 18.914C19.1678 18.8261 19.1879 18.7464 19.1615 18.7323C19.1439 18.7229 19.0448 18.7603 18.9539 18.8247C18.8177 18.9101 18.8118 18.9634 18.9085 19.0151Z" fill="#171717"/>
<path fill-rule="evenodd" clip-rule="evenodd" d="M17.4497 27.4221C17.52 27.4597 17.6003 27.4575 17.6285 27.4047C17.652 27.3608 17.5999 27.3103 17.5155 27.2991C17.4264 27.2966 17.3461 27.2988 17.3367 27.3164C17.3273 27.334 17.3794 27.3845 17.4497 27.4221Z" fill="#171717"/>
<path fill-rule="evenodd" clip-rule="evenodd" d="M17.9033 27.099C18.0263 27.1648 18.1408 27.0565 18.1363 26.8959C18.1259 26.7886 18.0814 26.7874 17.9757 26.9004C17.8929 26.9917 17.8682 27.0802 17.9033 27.099Z" fill="#171717"/>
<path fill-rule="evenodd" clip-rule="evenodd" d="M26.2585 15.8593C26.3024 15.8828 26.4508 15.8379 26.591 15.7659C26.835 15.6478 26.8491 15.6215 26.7408 15.507C26.6805 15.4296 26.5698 15.4042 26.4929 15.4422C26.3298 15.5358 26.1794 15.817 26.2585 15.8593Z" fill="#171717"/>
<path fill-rule="evenodd" clip-rule="evenodd" d="M27.1434 18.1993C27.2648 18.1625 27.347 18.0935 27.3394 18.0442C27.3184 17.9991 27.2427 17.9925 27.1612 18.0393C26.9165 18.1797 26.9094 18.2776 27.1434 18.1993Z" fill="#171717"/>
<path fill-rule="evenodd" clip-rule="evenodd" d="M27.6707 18.1401C27.7005 18.19 27.7538 18.1959 27.7774 18.152C27.8056 18.0992 27.7851 18.0318 27.7412 18.0083C27.6885 17.9801 27.6439 17.9788 27.6345 17.9964C27.6204 18.0228 27.6321 18.0855 27.6707 18.1401Z" fill="#171717"/>
<path fill-rule="evenodd" clip-rule="evenodd" d="M28.4639 17.3781C28.5342 17.4157 28.6515 17.3654 28.7478 17.27C28.9867 17.0135 28.988 16.969 28.7646 16.9851C28.5189 17.0006 28.297 17.2887 28.4639 17.3781Z" fill="#171717"/>
</svg>
